<?xml version="1.0" encoding="UTF-8" standalone="no"?>
<!-- Created with Inkscape (http://www.inkscape.org/) -->

<svg
   xmlns:dc="http://purl.org/dc/elements/1.1/"
   xmlns:cc="http://creativecommons.org/ns#"
   xmlns:rdf="http://www.w3.org/1999/02/22-rdf-syntax-ns#"
   xmlns:svg="http://www.w3.org/2000/svg"
   xmlns="http://www.w3.org/2000/svg"
   xmlns:xlink="http://www.w3.org/1999/xlink"
   xmlns:sodipodi="http://sodipodi.sourceforge.net/DTD/sodipodi-0.dtd"
   xmlns:inkscape="http://www.inkscape.org/namespaces/inkscape"
   width="800"
   height="480"
   id="svg2"
   version="1.1"
   inkscape:version="0.48.3.1 r9886"
   sodipodi:docname="burger.svg">
  <defs
     id="defs4">
    <linearGradient
       inkscape:collect="always"
       id="linearGradient3127">
      <stop
         style="stop-color:#502d16;stop-opacity:1"
         offset="0"
         id="stop3129" />
      <stop
         id="stop3135"
         offset="0.75760931"
         style="stop-color:#28170b;stop-opacity:1" />
      <stop
         style="stop-color:#c87137;stop-opacity:1"
         offset="1"
         id="stop3131" />
    </linearGradient>
    <linearGradient
       inkscape:collect="always"
       xlink:href="#linearGradient3127"
       id="linearGradient3133"
       x1="384"
       y1="612.36218"
       x2="384"
       y2="844.36218"
       gradientUnits="userSpaceOnUse" />
  </defs>
  <sodipodi:namedview
     id="base"
     pagecolor="#ffffff"
     bordercolor="#666666"
     borderopacity="1.0"
     inkscape:pageopacity="0.0"
     inkscape:pageshadow="2"
     inkscape:zoom="3.04"
     inkscape:cx="647.46015"
     inkscape:cy="359.46439"
     inkscape:document-units="px"
     inkscape:current-layer="layer1"
     showgrid="true"
     inkscape:window-width="1331"
     inkscape:window-height="748"
     inkscape:window-x="35"
     inkscape:window-y="0"
     inkscape:window-maximized="1">
    <inkscape:grid
       type="xygrid"
       id="grid2993"
       empspacing="8"
       visible="true"
       enabled="true"
       snapvisiblegridlinesonly="true" />
  </sodipodi:namedview>
  <metadata
     id="metadata7">
    <rdf:RDF>
      <cc:Work
         rdf:about="">
        <dc:format>image/svg+xml</dc:format>
        <dc:type
           rdf:resource="http://purl.org/dc/dcmitype/StillImage" />
        <dc:title></dc:title>
      </cc:Work>
    </rdf:RDF>
  </metadata>
  <g
     inkscape:label="Layer 1"
     inkscape:groupmode="layer"
     id="layer1"
     transform="translate(0,-572.36218)">
    <g
       id="g3005"
       inkscape:export-filename="/home/aurelien/workspace/burgerparty-android/assets/salad.png"
       inkscape:export-xdpi="90"
       inkscape:export-ydpi="90"
       transform="matrix(0.48995856,0,0,0.48995856,-15.790883,461.22967)">
      <path
         d="m 360,587.36218 c 0,8.28427 -62.68014,15 -140,15 -77.31986,0 -140,-6.71573 -140,-15 0,-8.28427 62.68014,-15 140,-15 77.31986,0 140,6.71573 140,15 z"
         sodipodi:ry="15"
         sodipodi:rx="140"
         sodipodi:cy="587.36218"
         sodipodi:cx="220"
         id="path2999"
         style="fill:#008000;fill-opacity:1;fill-rule:nonzero;stroke:none"
         sodipodi:type="arc" />
      <path
         transform="translate(80,20)"
         sodipodi:type="arc"
         style="fill:#008000;fill-opacity:1;fill-rule:nonzero;stroke:none"
         id="path3001"
         sodipodi:cx="220"
         sodipodi:cy="587.36218"
         sodipodi:rx="140"
         sodipodi:ry="15"
         d="m 360,587.36218 c 0,8.28427 -62.68014,15 -140,15 -77.31986,0 -140,-6.71573 -140,-15 0,-8.28427 62.68014,-15 140,-15 77.31986,0 140,6.71573 140,15 z" />
      <path
         d="m 360,587.36218 c 0,8.28427 -62.68014,15 -140,15 -77.31986,0 -140,-6.71573 -140,-15 0,-8.28427 62.68014,-15 140,-15 77.31986,0 140,6.71573 140,15 z"
         sodipodi:ry="15"
         sodipodi:rx="140"
         sodipodi:cy="587.36218"
         sodipodi:cx="220"
         id="path3003"
         style="fill:#008000;fill-opacity:1;fill-rule:nonzero;stroke:none"
         sodipodi:type="arc"
         transform="translate(160,6)" />
    </g>
    <g
       id="g3092"
       inkscape:export-filename="/home/aurelien/workspace/burgerparty-android/assets/tomato.png"
       inkscape:export-xdpi="90"
       inkscape:export-ydpi="90"
       transform="matrix(0.48995856,0,0,0.48995856,-32.690469,454.03299)">
      <g
         transform="translate(40,0)"
         id="g3017">
        <path
           transform="translate(0,10)"
           style="fill:#d40000;fill-opacity:1;fill-rule:nonzero;stroke:none"
           d="m 280,692.36218 c 0,11.0457 -40.29437,20 -90,20 -49.70563,0 -90,-8.9543 -90,-20 l 0,-10 c 11.33683,-8.16277 49.54559,-10 90,-10 40.25143,0 90,-4.07251 90,10 z"
           id="path3014"
           inkscape:connector-curvature="0"
           sodipodi:nodetypes="ssscsss" />
        <path
           sodipodi:type="arc"
           style="fill:#ff0000;fill-opacity:1;fill-rule:nonzero;stroke:none"
           id="path3010"
           sodipodi:cx="190"
           sodipodi:cy="692.36218"
           sodipodi:rx="90"
           sodipodi:ry="20"
           d="m 280,692.36218 c 0,11.0457 -40.29437,20 -90,20 -49.70563,0 -90,-8.9543 -90,-20 0,-11.04569 40.29437,-20 90,-20 49.70563,0 90,8.95431 90,20 z" />
        <path
           sodipodi:type="arc"
           style="fill:#ff5555;fill-opacity:1;fill-rule:nonzero;stroke:none"
           id="path3012"
           sodipodi:cx="190"
           sodipodi:cy="692.36218"
           sodipodi:rx="70"
           sodipodi:ry="11.666667"
           d="m 260,692.36218 c 0,6.44332 -31.34007,11.66667 -70,11.66667 -38.65993,0 -70,-5.22335 -70,-11.66667 0,-6.44332 31.34007,-11.66666 70,-11.66666 38.65993,0 70,5.22334 70,11.66666 z" />
      </g>
      <g
         transform="translate(140,20)"
         id="g3022">
        <path
           sodipodi:nodetypes="ssscsss"
           inkscape:connector-curvature="0"
           id="path3024"
           d="m 280,692.36218 c 0,11.0457 -40.29437,20 -90,20 -49.70563,0 -90,-8.9543 -90,-20 l 0,-10 c 11.33683,-8.16277 49.54559,-10 90,-10 40.25143,0 90,-4.07251 90,10 z"
           style="fill:#d40000;fill-opacity:1;fill-rule:nonzero;stroke:none"
           transform="translate(0,10)" />
        <path
           d="m 280,692.36218 c 0,11.0457 -40.29437,20 -90,20 -49.70563,0 -90,-8.9543 -90,-20 0,-11.04569 40.29437,-20 90,-20 49.70563,0 90,8.95431 90,20 z"
           sodipodi:ry="20"
           sodipodi:rx="90"
           sodipodi:cy="692.36218"
           sodipodi:cx="190"
           id="path3026"
           style="fill:#ff0000;fill-opacity:1;fill-rule:nonzero;stroke:none"
           sodipodi:type="arc" />
        <path
           d="m 260,692.36218 c 0,6.44332 -31.34007,11.66667 -70,11.66667 -38.65993,0 -70,-5.22335 -70,-11.66667 0,-6.44332 31.34007,-11.66666 70,-11.66666 38.65993,0 70,5.22334 70,11.66666 z"
           sodipodi:ry="11.666667"
           sodipodi:rx="70"
           sodipodi:cy="692.36218"
           sodipodi:cx="190"
           id="path3028"
           style="fill:#ff5555;fill-opacity:1;fill-rule:nonzero;stroke:none"
           sodipodi:type="arc" />
      </g>
      <g
         id="g3030"
         transform="translate(200,0)">
        <path
           transform="translate(0,10)"
           style="fill:#d40000;fill-opacity:1;fill-rule:nonzero;stroke:none"
           d="m 280,692.36218 c 0,11.0457 -40.29437,20 -90,20 -49.70563,0 -90,-8.9543 -90,-20 l 0,-10 c 11.33683,-8.16277 49.54559,-10 90,-10 40.25143,0 90,-4.07251 90,10 z"
           id="path3032"
           inkscape:connector-curvature="0"
           sodipodi:nodetypes="ssscsss" />
        <path
           sodipodi:type="arc"
           style="fill:#ff0000;fill-opacity:1;fill-rule:nonzero;stroke:none"
           id="path3034"
           sodipodi:cx="190"
           sodipodi:cy="692.36218"
           sodipodi:rx="90"
           sodipodi:ry="20"
           d="m 280,692.36218 c 0,11.0457 -40.29437,20 -90,20 -49.70563,0 -90,-8.9543 -90,-20 0,-11.04569 40.29437,-20 90,-20 49.70563,0 90,8.95431 90,20 z" />
        <path
           sodipodi:type="arc"
           style="fill:#ff5555;fill-opacity:1;fill-rule:nonzero;stroke:none"
           id="path3036"
           sodipodi:cx="190"
           sodipodi:cy="692.36218"
           sodipodi:rx="70"
           sodipodi:ry="11.666667"
           d="m 260,692.36218 c 0,6.44332 -31.34007,11.66667 -70,11.66667 -38.65993,0 -70,-5.22335 -70,-11.66667 0,-6.44332 31.34007,-11.66666 70,-11.66666 38.65993,0 70,5.22334 70,11.66666 z" />
      </g>
      <g
         transform="translate(261.22968,8.1639551)"
         id="g3081">
        <path
           sodipodi:nodetypes="ssscsss"
           inkscape:connector-curvature="0"
           id="path3083"
           d="m 280,692.36218 c 0,11.0457 -40.29437,20 -90,20 -49.70563,0 -90,-8.9543 -90,-20 l 0,-10 c 11.33683,-8.16277 49.54559,-10 90,-10 40.25143,0 90,-4.07251 90,10 z"
           style="fill:#d40000;fill-opacity:1;fill-rule:nonzero;stroke:none"
           transform="translate(0,10)" />
        <path
           d="m 280,692.36218 c 0,11.0457 -40.29437,20 -90,20 -49.70563,0 -90,-8.9543 -90,-20 0,-11.04569 40.29437,-20 90,-20 49.70563,0 90,8.95431 90,20 z"
           sodipodi:ry="20"
           sodipodi:rx="90"
           sodipodi:cy="692.36218"
           sodipodi:cx="190"
           id="path3085"
           style="fill:#ff0000;fill-opacity:1;fill-rule:nonzero;stroke:none"
           sodipodi:type="arc" />
        <path
           d="m 260,692.36218 c 0,6.44332 -31.34007,11.66667 -70,11.66667 -38.65993,0 -70,-5.22335 -70,-11.66667 0,-6.44332 31.34007,-11.66666 70,-11.66666 38.65993,0 70,5.22334 70,11.66666 z"
           sodipodi:ry="11.666667"
           sodipodi:rx="70"
           sodipodi:cy="692.36218"
           sodipodi:cx="190"
           id="path3087"
           style="fill:#ff5555;fill-opacity:1;fill-rule:nonzero;stroke:none"
           sodipodi:type="arc" />
      </g>
    </g>
    <g
       id="g3052"
       transform="matrix(1.2222222,0,0,0.56666669,-106.22222,448.35693)"
       inkscape:export-filename="/home/aurelien/workspace/burgerparty-android/assets/steak.png"
       inkscape:export-xdpi="90"
       inkscape:export-ydpi="90">
      <path
         transform="translate(0,10)"
         style="fill:#800000;fill-opacity:1;fill-rule:nonzero;stroke:none"
         d="m 280,702.36218 c 0,11.0457 -40.29437,20 -90,20 -49.70563,0 -90,-8.9543 -90,-20 l 0,-20 c 11.33683,-8.16277 49.54559,-10 90,-10 40.25143,0 90,-4.07251 90,10 z"
         id="path3054"
         inkscape:connector-curvature="0"
         sodipodi:nodetypes="ssscsss" />
      <path
         sodipodi:type="arc"
         style="fill:#aa0000;fill-opacity:1;fill-rule:nonzero;stroke:none"
         id="path3056"
         sodipodi:cx="190"
         sodipodi:cy="692.36218"
         sodipodi:rx="90"
         sodipodi:ry="20"
         d="m 280,692.36218 c 0,11.0457 -40.29437,20 -90,20 -49.70563,0 -90,-8.9543 -90,-20 0,-11.04569 40.29437,-20 90,-20 49.70563,0 90,8.95431 90,20 z" />
    </g>
    <g
       id="g3102"
       inkscape:export-filename="/home/aurelien/workspace/burgerparty-android/assets/cheese.png"
       inkscape:export-xdpi="90"
       inkscape:export-ydpi="90">
      <path
         sodipodi:nodetypes="cccccccssssssssss"
         inkscape:connector-curvature="0"
         style="fill:#d4aa00;fill-opacity:1;fill-rule:nonzero;stroke:none"
         d="m 32,877.36218 -16,15 0,1 224,0 0,-1 -16,-15 z m 13,2 c 3.295547,0 5.96875,1.32098 5.96875,2.96875 0,1.64777 -2.673203,3 -5.96875,3 -3.295547,0 -5.96875,-1.35223 -5.96875,-3 0,-1.64777 2.673203,-2.96875 5.96875,-2.96875 z m 28,3 c 6.066052,0 10.96875,2.22549 10.96875,4.96875 0,2.74326 -4.902698,4.96875 -10.96875,4.96875 -6.066052,0 -10.96875,-2.22549 -10.96875,-4.96875 0,-2.74326 4.902698,-4.96875 10.96875,-4.96875 z"
         id="path3100" />
      <path
         id="rect3060"
         transform="translate(0,572.36218)"
         d="M 32 304 L 16 320 L 240 320 L 224 304 L 32 304 z M 45 306 C 48.295547 306 50.96875 307.32098 50.96875 308.96875 C 50.96875 310.61652 48.295547 311.96875 45 311.96875 C 41.704453 311.96875 39.03125 310.61652 39.03125 308.96875 C 39.03125 307.32098 41.704453 306 45 306 z M 73 309 C 79.066052 309 83.96875 311.22549 83.96875 313.96875 C 83.96875 316.71201 79.066052 318.9375 73 318.9375 C 66.933948 318.9375 62.03125 316.71201 62.03125 313.96875 C 62.03125 311.22549 66.933948 309 73 309 z "
         style="fill:#ffd42a;fill-opacity:1;fill-rule:nonzero;stroke:none" />
    </g>
    <g
       id="g3111"
       inkscape:export-filename="/home/aurelien/workspace/burgerparty-android/assets/bottom.png"
       inkscape:export-xdpi="90"
       inkscape:export-ydpi="90">
      <path
         sodipodi:nodetypes="cczszccc"
         inkscape:connector-curvature="0"
         id="rect2991"
         transform="translate(0,572.36218)"
         d="m 16,120 0,9.0625 c 2.229912,9.69536 11.106677,13.57749 16,14.9375 4.893323,1.36001 46.562386,4 104,4 57.43761,0 98.6357,-2.42069 104,-4 5.3643,-1.57931 15.8012,-8.23485 16,-14.9375 L 256,120 z"
         style="fill:#d45500;fill-opacity:1;fill-rule:nonzero;stroke:none" />
      <path
         transform="translate(0,572.36218)"
         d="m 256,120 a 120,8 0 1 1 -240,0 120,8 0 1 1 240,0 z"
         sodipodi:ry="8"
         sodipodi:rx="120"
         sodipodi:cy="120"
         sodipodi:cx="136"
         id="path3106"
         style="fill:#ffdd55;fill-opacity:1;fill-rule:nonzero;stroke:none"
         sodipodi:type="arc" />
    </g>
    <path
       style="fill:#d45500;fill-opacity:1;fill-rule:nonzero;stroke:none"
       d="M 135.99998,604.36218 C 69.727033,604.36218 16,625.19617 16,650.89433 c 0,0.49203 0.0372,0.97945 0.07631,1.46785 0,0 15.92369,8 119.92369,8 104,0 119.92365,-8 119.92365,-8 0.0392,-0.48835 0.0763,-0.97584 0.0763,-1.46785 0,-25.69816 -53.72703,-46.53215 -119.99999,-46.53215 z"
       id="path2985"
       inkscape:connector-curvature="0"
       inkscape:export-filename="/home/aurelien/workspace/burgerparty-android/assets/top.png"
       inkscape:export-xdpi="90"
       inkscape:export-ydpi="90"
       sodipodi:nodetypes="csczcscc" />
    <g
       id="g3137"
       inkscape:export-filename="/home/aurelien/workspace/burgerparty-android/assets/shelf.png"
       inkscape:export-xdpi="90"
       inkscape:export-ydpi="90">
      <rect
         y="604.36218"
         x="272"
         height="248"
         width="248"
         id="rect3115"
         style="fill:#a05a2c;fill-opacity:1;fill-rule:nonzero;stroke:none" />
      <rect
         style="fill:url(#linearGradient3133);fill-opacity:1;fill-rule:nonzero;stroke:none"
         id="rect3117"
         width="232"
         height="232"
         x="280"
         y="612.36218" />
    </g>
    <g
       id="g3146">
      <path
         sodipodi:nodetypes="ccccc"
         inkscape:connector-curvature="0"
         id="rect3141"
         d="m 584,64 120,0 -16,120 c -24,8 -64,8 -88,0 z"
         style="fill:#808080;fill-opacity:1;fill-rule:nonzero;stroke:none"
         transform="translate(0,572.36218)" />
      <path
         transform="translate(0,564.36218)"
         d="m 704,72 a 60,8 0 1 1 -120,0 60,8 0 1 1 120,0 z"
         sodipodi:ry="8"
         sodipodi:rx="60"
         sodipodi:cy="72"
         sodipodi:cx="644"
         id="path3144"
         style="fill:#4d4d4d;fill-opacity:1;fill-rule:nonzero;stroke:none"
         sodipodi:type="arc" />
    </g>
  </g>
</svg>
