<?xml version="1.0" encoding="UTF-8" standalone="no"?>
<!-- Created with Inkscape (http://www.inkscape.org/) -->

<svg
   xmlns:dc="http://purl.org/dc/elements/1.1/"
   xmlns:cc="http://creativecommons.org/ns#"
   xmlns:rdf="http://www.w3.org/1999/02/22-rdf-syntax-ns#"
   xmlns:svg="http://www.w3.org/2000/svg"
   xmlns="http://www.w3.org/2000/svg"
   xmlns:xlink="http://www.w3.org/1999/xlink"
   xmlns:sodipodi="http://sodipodi.sourceforge.net/DTD/sodipodi-0.dtd"
   xmlns:inkscape="http://www.inkscape.org/namespaces/inkscape"
   width="1052.3622"
   height="744.09448"
   id="svg9823"
   version="1.1"
   inkscape:version="0.48.4 r9939"
   sodipodi:docname="japan.svg">
  <defs
     id="defs9825">
    <radialGradient
       inkscape:collect="always"
       xlink:href="#linearGradient5564-1-8"
       id="radialGradient9547"
       gradientUnits="userSpaceOnUse"
       gradientTransform="matrix(1,0,0,1.2325581,0,-83.694149)"
       cx="1373.6001"
       cy="359.88483"
       fx="1373.6001"
       fy="359.88483"
       r="4.7654972" />
    <linearGradient
       id="linearGradient5564-1-8"
       inkscape:collect="always">
      <stop
         id="stop5566-1-2"
         offset="0"
         style="stop-color:#000000;stop-opacity:1;" />
      <stop
         id="stop5568-3-7"
         offset="1"
         style="stop-color:#000000;stop-opacity:0;" />
    </linearGradient>
    <radialGradient
       inkscape:collect="always"
       xlink:href="#linearGradient5362"
       id="radialGradient9549"
       gradientUnits="userSpaceOnUse"
       gradientTransform="matrix(2.2281893,0.35348426,-0.19907379,1.2548683,-4467.7495,-780.00972)"
       cx="3198.709"
       cy="677.87103"
       fx="3198.709"
       fy="677.87103"
       r="54.109318" />
    <linearGradient
       id="linearGradient5362"
       inkscape:collect="always">
      <stop
         id="stop5364"
         offset="0"
         style="stop-color:#333333;stop-opacity:1" />
      <stop
         id="stop5366"
         offset="1"
         style="stop-color:#1a1a1a;stop-opacity:1" />
    </linearGradient>
    <radialGradient
       inkscape:collect="always"
       xlink:href="#linearGradient5384"
       id="radialGradient9551"
       gradientUnits="userSpaceOnUse"
       gradientTransform="matrix(2.9159559,0.7902571,-0.32714596,1.2071302,-3935.6306,-2090.9502)"
       cx="2349.1631"
       cy="1147.0785"
       fx="2349.1631"
       fy="1147.0785"
       r="51.687946" />
    <linearGradient
       id="linearGradient5384"
       inkscape:collect="always">
      <stop
         id="stop5386"
         offset="0"
         style="stop-color:#333333;stop-opacity:1" />
      <stop
         id="stop5388"
         offset="1"
         style="stop-color:#1a1a1a;stop-opacity:1" />
    </linearGradient>
    <radialGradient
       inkscape:collect="always"
       xlink:href="#linearGradient5564-1-8"
       id="radialGradient9479"
       gradientUnits="userSpaceOnUse"
       gradientTransform="matrix(1,0,0,1.2325581,0,-83.694149)"
       cx="1373.6001"
       cy="359.88483"
       fx="1373.6001"
       fy="359.88483"
       r="4.7654972" />
    <radialGradient
       inkscape:collect="always"
       xlink:href="#linearGradient5362"
       id="radialGradient9481"
       gradientUnits="userSpaceOnUse"
       gradientTransform="matrix(2.2281893,0.35348426,-0.19907379,1.2548683,-4467.7495,-780.00972)"
       cx="3198.709"
       cy="677.87103"
       fx="3198.709"
       fy="677.87103"
       r="54.109318" />
    <radialGradient
       inkscape:collect="always"
       xlink:href="#linearGradient5384"
       id="radialGradient9483"
       gradientUnits="userSpaceOnUse"
       gradientTransform="matrix(2.9159559,0.7902571,-0.32714596,1.2071302,-3935.6306,-2090.9502)"
       cx="2349.1631"
       cy="1147.0785"
       fx="2349.1631"
       fy="1147.0785"
       r="51.687946" />
    <radialGradient
       inkscape:collect="always"
       xlink:href="#linearGradient5564-1-8"
       id="radialGradient8548"
       gradientUnits="userSpaceOnUse"
       gradientTransform="matrix(1,0,0,1.2325581,0,-83.694149)"
       cx="1373.6001"
       cy="359.88483"
       fx="1373.6001"
       fy="359.88483"
       r="4.7654972" />
    <radialGradient
       inkscape:collect="always"
       xlink:href="#linearGradient5362"
       id="radialGradient8550"
       gradientUnits="userSpaceOnUse"
       gradientTransform="matrix(2.2281893,0.35348426,-0.19907379,1.2548683,-4467.7495,-780.00972)"
       cx="3198.709"
       cy="677.87103"
       fx="3198.709"
       fy="677.87103"
       r="54.109318" />
    <radialGradient
       inkscape:collect="always"
       xlink:href="#linearGradient5384"
       id="radialGradient8552"
       gradientUnits="userSpaceOnUse"
       gradientTransform="matrix(2.9159559,0.7902571,-0.32714596,1.2071302,-3935.6306,-2090.9502)"
       cx="2349.1631"
       cy="1147.0785"
       fx="2349.1631"
       fy="1147.0785"
       r="51.687946" />
    <linearGradient
       inkscape:collect="always"
       xlink:href="#linearGradient5409"
       id="linearGradient8509"
       gradientUnits="userSpaceOnUse"
       gradientTransform="translate(-0.80461,0.24)"
       spreadMethod="reflect"
       x1="2535.8206"
       y1="1241.2679"
       x2="2546.8318"
       y2="1241.1609" />
    <linearGradient
       id="linearGradient5409">
      <stop
         id="stop5411"
         offset="0"
         style="stop-color:#aa4400;stop-opacity:1" />
      <stop
         style="stop-color:#7f3300;stop-opacity:1;"
         offset="0.78272194"
         id="stop5419" />
      <stop
         id="stop5413"
         offset="1"
         style="stop-color:#552200;stop-opacity:1" />
    </linearGradient>
    <linearGradient
       inkscape:collect="always"
       xlink:href="#linearGradient5612-5-4-9-7-9-2"
       id="linearGradient8526"
       gradientUnits="userSpaceOnUse"
       gradientTransform="matrix(1.9488555,0,0,1.9488555,-281.50541,-1033.951)"
       x1="1353.345"
       y1="392.87033"
       x2="1387.5219"
       y2="387.45447" />
    <linearGradient
       id="linearGradient5612-5-4-9-7-9-2">
      <stop
         style="stop-color:#ffd5d5;stop-opacity:1;"
         offset="0"
         id="stop5614-7-6-0-35-2-3" />
      <stop
         id="stop5616-5-9-3-63-4-9"
         offset="0.23991838"
         style="stop-color:#ffc9c9;stop-opacity:1" />
      <stop
         style="stop-color:#ffb3b3;stop-opacity:1"
         offset="1"
         id="stop5618-4-9-4-4-2-7" />
    </linearGradient>
    <linearGradient
       inkscape:collect="always"
       xlink:href="#linearGradient5634-1-3-7-3"
       id="linearGradient8528"
       gradientUnits="userSpaceOnUse"
       gradientTransform="translate(-694.09879,525.24)"
       x1="2144"
       y1="-143.87781"
       x2="2144"
       y2="-140.87781" />
    <linearGradient
       id="linearGradient5634-1-3-7-3"
       inkscape:collect="always">
      <stop
         id="stop5636-3-8-3-2"
         offset="0"
         style="stop-color:#ff7c7c;stop-opacity:1" />
      <stop
         id="stop5638-5-5-8-7"
         offset="1"
         style="stop-color:#ffb4b4;stop-opacity:1" />
    </linearGradient>
    <radialGradient
       inkscape:collect="always"
       xlink:href="#linearGradient5554-48"
       id="radialGradient8530"
       gradientUnits="userSpaceOnUse"
       gradientTransform="matrix(2.328931,0,0,1.7175714,-837.57551,39.67376)"
       cx="1378.6633"
       cy="362.51865"
       fx="1378.6633"
       fy="362.51865"
       r="24" />
    <linearGradient
       id="linearGradient5554-48">
      <stop
         id="stop5556-16"
         offset="0"
         style="stop-color:#ffd5d5;stop-opacity:1;" />
      <stop
         style="stop-color:#ffc9c9;stop-opacity:1"
         offset="0.83780998"
         id="stop5572-7" />
      <stop
         id="stop5558-4"
         offset="1"
         style="stop-color:#ffb3b3;stop-opacity:1" />
    </linearGradient>
    <linearGradient
       inkscape:collect="always"
       xlink:href="#linearGradient5393"
       id="linearGradient8513"
       gradientUnits="userSpaceOnUse"
       x1="2344.3389"
       y1="1254.5276"
       x2="2381.3667"
       y2="1276.7762"
       gradientTransform="translate(-1,1.2534569)" />
    <linearGradient
       id="linearGradient5393"
       inkscape:collect="always">
      <stop
         id="stop5395"
         offset="0"
         style="stop-color:#333333;stop-opacity:1;" />
      <stop
         id="stop5397"
         offset="1"
         style="stop-color:#1a1a1a;stop-opacity:1" />
    </linearGradient>
    <linearGradient
       inkscape:collect="always"
       xlink:href="#linearGradient5393"
       id="linearGradient8517"
       gradientUnits="userSpaceOnUse"
       x1="2344.3389"
       y1="1254.5276"
       x2="2426.3181"
       y2="1278.1384"
       gradientTransform="translate(0,0.87507852)" />
  </defs>
  <sodipodi:namedview
     id="base"
     pagecolor="#ffffff"
     bordercolor="#666666"
     borderopacity="1.0"
     inkscape:pageopacity="0.0"
     inkscape:pageshadow="2"
     inkscape:zoom="0.7"
     inkscape:cx="226.31741"
     inkscape:cy="374.74881"
     inkscape:document-units="px"
     inkscape:current-layer="layer1"
     showgrid="false"
     inkscape:window-width="1883"
     inkscape:window-height="1060"
     inkscape:window-x="37"
     inkscape:window-y="-3"
     inkscape:window-maximized="1" />
  <metadata
     id="metadata9828">
    <rdf:RDF>
      <cc:Work
         rdf:about="">
        <dc:format>image/svg+xml</dc:format>
        <dc:type
           rdf:resource="http://purl.org/dc/dcmitype/StillImage" />
        <dc:title></dc:title>
      </cc:Work>
    </rdf:RDF>
  </metadata>
  <g
     inkscape:label="Calque 1"
     inkscape:groupmode="layer"
     id="layer1"
     transform="translate(0,-308.2677)">
    <rect
       style="fill:#cccccc;fill-opacity:1;stroke:none"
       id="rect8554"
       width="503.40268"
       height="155.82339"
       x="355.96939"
       y="694.43835" />
    <g
       id="g8556"
       inkscape:export-filename="ninjas/body-0.png"
       inkscape:export-xdpi="90"
       inkscape:export-ydpi="90"
       transform="translate(-2225.2955,-408.1401)">
      <g
         transform="matrix(0.70710678,0.70710678,-0.70710678,0.70710678,1491.8532,-1426.6144)"
         id="g8504">
        <rect
           y="1195.3555"
           x="2531.1953"
           height="93"
           width="15"
           id="rect5403"
           style="fill:url(#linearGradient8509);fill-opacity:1;stroke:none" />
        <path
           inkscape:connector-curvature="0"
           id="path5421"
           d="m 2543.6954,1199.4811 0,72.0593"
           style="fill:none;stroke:#552200;stroke-width:1;stroke-linecap:butt;stroke-linejoin:miter;stroke-opacity:0.69369369" />
        <path
           style="fill:none;stroke:#552200;stroke-width:1;stroke-linecap:butt;stroke-linejoin:miter;stroke-opacity:0.42342344"
           d="m 2539.6954,1208.4811 0,72.0593"
           id="path8500"
           inkscape:connector-curvature="0" />
      </g>
      <g
         inkscape:export-ydpi="90"
         inkscape:export-xdpi="90"
         inkscape:export-filename="customers/boys/body-0.png"
         id="g4473"
         transform="matrix(0.99875528,0,0,0.99681069,2.5916481,534.01221)">
        <g
           inkscape:export-ydpi="90"
           inkscape:export-xdpi="90"
           inkscape:export-filename="customers/boys/body-0.png"
           id="g4475">
          <g
             inkscape:export-ydpi="90"
             inkscape:export-xdpi="90"
             inkscape:export-filename="/home/aurelien/workspace/burgerparty/assets/customers/body-0.png"
             id="g4478"
             transform="matrix(1.9488555,0,0,1.9488555,-443.75249,-44.8837)">
            <path
               style="fill:url(#linearGradient8526);fill-opacity:1;stroke:none"
               d="m 2413.875,-290.78125 c -2.834,0.0117 -6.9866,0.0312 -9.6875,0.0312 l -1.9687,6.8125 c 0,0 -5.3715,-0.30526 -7.8438,0.65625 -16.1229,6.2706 -30.9932,19.72006 -31.8125,37 l 1.0937,19.50537 15.125,0 c -0.3463,-9.4991 -1.469,-22.24306 3.875,-26.66162 l -2.5624,26.66162 67.875,0 -2.5626,-26.66162 c 5.3438,4.41841 4.2526,17.16279 3.9063,26.66162 l 15.0937,0 1.0938,-19.50537 c -0.8193,-17.27994 -15.6894,-30.7294 -31.8125,-37 -2.4721,-0.96151 -7.8438,-0.65625 -7.8437,-0.65625 l -1.9688,-6.8125 c -2.7005,0 -5.5408,-0.0196 -8.375,-0.0312 -0.5498,-0.002 -1.0743,0.002 -1.625,0 z"
               transform="matrix(0.51312168,0,0,0.51312168,211.16465,530.72704)"
               id="path4480"
               inkscape:connector-curvature="0"
               sodipodi:nodetypes="cccsccccccccccccccc" />
            <path
               inkscape:connector-curvature="0"
               id="path4482"
               d="m 1454.9012,381.3622 -10,0 -1,4 12,0 z"
               style="fill:url(#linearGradient8528);fill-opacity:1;stroke:none" />
          </g>
          <path
             transform="matrix(1.9488555,0,0,1.9488555,-1795.2762,979.7484)"
             d="m 2124,-158.87781 c 0,2.20914 -1.7909,4 -4,4 -2.2091,0 -4,-1.79086 -4,-4 0,-2.20914 1.7909,-4 4,-4 2.2091,0 4,1.79086 4,4 z"
             sodipodi:ry="4"
             sodipodi:rx="4"
             sodipodi:cy="-158.87781"
             sodipodi:cx="2120"
             id="path4486"
             style="fill:#ffd1d1;fill-opacity:1;stroke:none"
             sodipodi:type="arc" />
          <path
             sodipodi:type="arc"
             style="fill:#ffbfbf;fill-opacity:1;stroke:none"
             id="path4488"
             sodipodi:cx="2120"
             sodipodi:cy="-158.87781"
             sodipodi:rx="4"
             sodipodi:ry="4"
             d="m 2124,-158.87781 c 0,2.20914 -1.7909,4 -4,4 -2.2091,0 -4,-1.79086 -4,-4 0,-2.20914 1.7909,-4 4,-4 2.2091,0 4,1.79086 4,4 z"
             transform="matrix(1.9488555,0,0,1.9488555,-1703.7336,979.7484)" />
          <path
             sodipodi:nodetypes="cczccc"
             inkscape:connector-curvature="0"
             id="path4490"
             d="m 2335.2963,618.85678 0,56.51681 c 0,0 0,25.92662 46.7725,25.92662 46.7725,0 46.7725,-25.92662 46.7725,-25.92662 l 0,-56.51681 z"
             style="fill:url(#radialGradient8530);fill-opacity:1;stroke:none" />
          <path
             sodipodi:nodetypes="czc"
             inkscape:connector-curvature="0"
             id="path4493"
             d="m 2387.9154,675.96509 c 0,0 -3.5043,-3.89771 -5.8466,-3.89771 -2.3423,0 -5.8466,3.89771 -5.8466,3.89771"
             style="fill:none;stroke:#ff8080;stroke-width:1.95318675px;stroke-linecap:round;stroke-linejoin:round;stroke-opacity:1" />
        </g>
      </g>
      <path
         sodipodi:nodetypes="cccccccccc"
         id="path8511"
         d="m 2367.2076,1237.793 c -22.6358,-0.1967 -34.3989,12.7283 -37,27.375 -1.4778,8.3227 -1.7718,18.6372 1.0937,29.1875 l 15.4063,-0.1562 0.1563,-15.1563 2.8437,-9.1562 -2.9063,24.2812 c 23,0 46,0 69,0 l -48.5935,-56.3753 z"
         style="fill:url(#linearGradient8513);fill-opacity:1;stroke:none"
         inkscape:connector-curvature="0" />
      <path
         sodipodi:nodetypes="ccccccccc"
         inkscape:connector-curvature="0"
         style="fill:url(#linearGradient8517);fill-opacity:1;stroke:none"
         d="m 2347.534,1294.2714 69.0536,-0.067 -2.6922,-24.696 2.8438,9.1562 -0.058,15.5398 15.4062,0 c 2.8657,-10.5503 2.7856,-21.0921 1.3078,-29.4148 -2.6011,-14.6467 -14.3642,-27.5717 -37,-27.375 -19.1581,16.0042 -32.2055,35.0233 -48.8612,56.8568 z"
         id="path4513" />
    </g>
    <rect
       y="843.52307"
       x="258.1322"
       height="25.418379"
       width="25.842018"
       id="rect4525"
       style="fill:#333333;fill-opacity:1;stroke:none" />
    <g
       id="g8532"
       transform="translate(-2145.2955,-408.1401)"
       inkscape:export-filename="ninjas/face-0-happy.png"
       inkscape:export-xdpi="90"
       inkscape:export-ydpi="90">
      <g
         id="g5346"
         transform="translate(191.01973,0.87507852)">
        <path
           sodipodi:nodetypes="cccc"
           inkscape:connector-curvature="0"
           id="path5299"
           d="m 2371.0122,1201.9541 c 2.104,-9.0947 2.4109,-18.1893 0,-27.284 -20.4094,-10.7022 -31.9053,12.0078 -24.3862,27.284 8.0016,-0.7218 17.4311,-2.9415 24.3862,0 z"
           style="fill:#ffffff;stroke:none" />
        <path
           sodipodi:nodetypes="cccc"
           inkscape:connector-curvature="0"
           id="path5301"
           d="m 2390.5859,1201.9541 c -2.104,-9.0947 -2.4109,-18.1893 0,-27.284 20.4094,-10.7022 31.9053,12.0078 24.3862,27.284 -8.0016,-0.7218 -17.4311,-2.9415 -24.3862,0 z"
           style="fill:#ffffff;stroke:none" />
        <g
           transform="matrix(2.8099776,0,0,2.8099776,-1496.729,187.49222)"
           id="g5303">
          <path
             sodipodi:type="arc"
             style="fill:#008000;fill-opacity:1;stroke:none"
             id="path5305"
             sodipodi:cx="2135.6345"
             sodipodi:cy="-168.35516"
             sodipodi:rx="2.0752974"
             sodipodi:ry="4.0737319"
             d="m 2137.7098,-168.35516 c 0,2.24986 -0.9291,4.07373 -2.0753,4.07373 -1.1461,0 -2.0753,-1.82387 -2.0753,-4.07373 0,-2.24986 0.9292,-4.07374 2.0753,-4.07374 1.1462,0 2.0753,1.82388 2.0753,4.07374 z"
             transform="matrix(1.5925926,0,0,1,-2027.5956,525.24)" />
          <path
             transform="matrix(1.0740741,0,0,0.67441862,-920.2296,470.42669)"
             d="m 2137.7098,-168.35516 c 0,2.24986 -0.9291,4.07373 -2.0753,4.07373 -1.1461,0 -2.0753,-1.82387 -2.0753,-4.07373 0,-2.24986 0.9292,-4.07374 2.0753,-4.07374 1.1462,0 2.0753,1.82388 2.0753,4.07374 z"
             sodipodi:ry="4.0737319"
             sodipodi:rx="2.0752974"
             sodipodi:cy="-168.35516"
             sodipodi:cx="2135.6345"
             id="path5307"
             style="fill:#000000;fill-opacity:1;stroke:none"
             sodipodi:type="arc" />
          <path
             sodipodi:type="arc"
             style="fill:#ffffff;fill-opacity:1;stroke:none"
             id="path5309"
             sodipodi:cx="2135.6345"
             sodipodi:cy="-168.35516"
             sodipodi:rx="2.0752974"
             sodipodi:ry="4.0737319"
             d="m 2137.7098,-168.35516 c 0,2.24986 -0.9291,4.07373 -2.0753,4.07373 -1.1461,0 -2.0753,-1.82387 -2.0753,-4.07373 0,-2.24986 0.9292,-4.07374 2.0753,-4.07374 1.1462,0 2.0753,1.82388 2.0753,4.07374 z"
             transform="matrix(0.38888894,0,0,0.24418608,541.93392,396.45756)" />
        </g>
        <g
           transform="matrix(2.8099776,0,0,2.8099776,-1460.8004,187.49222)"
           id="g5311"
           style="fill:url(#radialGradient8548)">
          <path
             sodipodi:type="arc"
             style="fill:#008000;fill-opacity:1;stroke:none"
             id="path5314"
             sodipodi:cx="2135.6345"
             sodipodi:cy="-168.35516"
             sodipodi:rx="2.0752974"
             sodipodi:ry="4.0737319"
             d="m 2137.7098,-168.35516 c 0,2.24986 -0.9291,4.07373 -2.0753,4.07373 -1.1461,0 -2.0753,-1.82387 -2.0753,-4.07373 0,-2.24986 0.9292,-4.07374 2.0753,-4.07374 1.1462,0 2.0753,1.82388 2.0753,4.07374 z"
             transform="matrix(1.5925926,0,0,1,-2027.5956,525.24)" />
          <path
             transform="matrix(1.0740741,0,0,0.67441862,-920.2296,470.42669)"
             d="m 2137.7098,-168.35516 c 0,2.24986 -0.9291,4.07373 -2.0753,4.07373 -1.1461,0 -2.0753,-1.82387 -2.0753,-4.07373 0,-2.24986 0.9292,-4.07374 2.0753,-4.07374 1.1462,0 2.0753,1.82388 2.0753,4.07374 z"
             sodipodi:ry="4.0737319"
             sodipodi:rx="2.0752974"
             sodipodi:cy="-168.35516"
             sodipodi:cx="2135.6345"
             id="path5316"
             style="fill:#000000;fill-opacity:1;stroke:none"
             sodipodi:type="arc" />
          <path
             sodipodi:type="arc"
             style="fill:#ffffff;fill-opacity:1;stroke:none"
             id="path5318"
             sodipodi:cx="2135.6345"
             sodipodi:cy="-168.35516"
             sodipodi:rx="2.0752974"
             sodipodi:ry="4.0737319"
             d="m 2137.7098,-168.35516 c 0,2.24986 -0.9291,4.07373 -2.0753,4.07373 -1.1461,0 -2.0753,-1.82387 -2.0753,-4.07373 0,-2.24986 0.9292,-4.07374 2.0753,-4.07374 1.1462,0 2.0753,1.82388 2.0753,4.07374 z"
             transform="matrix(0.38888894,0,0,0.24418608,541.93392,396.45756)" />
        </g>
      </g>
      <path
         style="fill:url(#radialGradient8550);fill-opacity:1;stroke:none"
         d="m 2520.4938,1180.9087 c -24.9381,79.7927 127,75.6401 102.8262,0.4236 l -5.3463,1.2944 c -10.5799,26.0313 -23.0235,16.3414 -46.2195,14.4148 -27.8896,3.8099 -35.9816,10.8945 -46.0531,-14.7385 z"
         id="path5295"
         inkscape:connector-curvature="0"
         sodipodi:nodetypes="cccccc" />
      <path
         style="fill:url(#radialGradient8552);fill-opacity:1;stroke:none"
         d="m 2521.3411,1181.756 c 32.4354,2.2674 75.8516,4.3223 101.6735,0 9.6182,-84.4911 -116.2551,-73.0666 -101.6735,0 z"
         id="path4505"
         inkscape:connector-curvature="0"
         sodipodi:nodetypes="ccc" />
    </g>
    <rect
       y="811.07483"
       x="257.05652"
       height="24.821621"
       width="26.032433"
       id="rect5370"
       style="fill:#1a1a1a;fill-opacity:1;stroke:none" />
    <rect
       y="840.73975"
       x="337.57556"
       height="18.464865"
       width="9.3837843"
       id="rect5405"
       style="fill:#aa4400;fill-opacity:1;stroke:none" />
    <rect
       y="864.04785"
       x="337.87805"
       height="13.318919"
       width="8.4756756"
       id="rect5407"
       style="fill:#552200;fill-opacity:1;stroke:none" />
    <g
       inkscape:export-ydpi="90"
       inkscape:export-xdpi="90"
       inkscape:export-filename="ninjas/face-0-neutral.png"
       transform="translate(-2005.2955,-408.1401)"
       id="g9451">
      <g
         transform="translate(191.01973,0.87507852)"
         id="g9453">
        <path
           style="fill:#ffffff;stroke:none"
           d="m 2371.0122,1201.9541 c 2.104,-9.0947 2.4109,-18.1893 0,-27.284 -20.4094,-10.7022 -31.9053,12.0078 -24.3862,27.284 8.0016,-0.7218 17.4311,-2.9415 24.3862,0 z"
           id="path9455"
           inkscape:connector-curvature="0"
           sodipodi:nodetypes="cccc" />
        <path
           style="fill:#ffffff;stroke:none"
           d="m 2390.5859,1201.9541 c -2.104,-9.0947 -2.4109,-18.1893 0,-27.284 20.4094,-10.7022 31.9053,12.0078 24.3862,27.284 -8.0016,-0.7218 -17.4311,-2.9415 -24.3862,0 z"
           id="path9457"
           inkscape:connector-curvature="0"
           sodipodi:nodetypes="cccc" />
        <g
           id="g9459"
           transform="matrix(2.8099776,0,0,2.8099776,-1496.729,187.49222)">
          <path
             transform="matrix(1.5925926,0,0,1,-2027.5956,525.24)"
             d="m 2137.7098,-168.35516 c 0,2.24986 -0.9291,4.07373 -2.0753,4.07373 -1.1461,0 -2.0753,-1.82387 -2.0753,-4.07373 0,-2.24986 0.9292,-4.07374 2.0753,-4.07374 1.1462,0 2.0753,1.82388 2.0753,4.07374 z"
             sodipodi:ry="4.0737319"
             sodipodi:rx="2.0752974"
             sodipodi:cy="-168.35516"
             sodipodi:cx="2135.6345"
             id="path9461"
             style="fill:#008000;fill-opacity:1;stroke:none"
             sodipodi:type="arc" />
          <path
             sodipodi:type="arc"
             style="fill:#000000;fill-opacity:1;stroke:none"
             id="path9463"
             sodipodi:cx="2135.6345"
             sodipodi:cy="-168.35516"
             sodipodi:rx="2.0752974"
             sodipodi:ry="4.0737319"
             d="m 2137.7098,-168.35516 c 0,2.24986 -0.9291,4.07373 -2.0753,4.07373 -1.1461,0 -2.0753,-1.82387 -2.0753,-4.07373 0,-2.24986 0.9292,-4.07374 2.0753,-4.07374 1.1462,0 2.0753,1.82388 2.0753,4.07374 z"
             transform="matrix(1.0740741,0,0,0.67441862,-920.2296,470.42669)" />
          <path
             transform="matrix(0.38888894,0,0,0.24418608,541.93392,396.45756)"
             d="m 2137.7098,-168.35516 c 0,2.24986 -0.9291,4.07373 -2.0753,4.07373 -1.1461,0 -2.0753,-1.82387 -2.0753,-4.07373 0,-2.24986 0.9292,-4.07374 2.0753,-4.07374 1.1462,0 2.0753,1.82388 2.0753,4.07374 z"
             sodipodi:ry="4.0737319"
             sodipodi:rx="2.0752974"
             sodipodi:cy="-168.35516"
             sodipodi:cx="2135.6345"
             id="path9465"
             style="fill:#ffffff;fill-opacity:1;stroke:none"
             sodipodi:type="arc" />
        </g>
        <g
           style="fill:url(#radialGradient9479)"
           id="g9467"
           transform="matrix(2.8099776,0,0,2.8099776,-1460.8004,187.49222)">
          <path
             transform="matrix(1.5925926,0,0,1,-2027.5956,525.24)"
             d="m 2137.7098,-168.35516 c 0,2.24986 -0.9291,4.07373 -2.0753,4.07373 -1.1461,0 -2.0753,-1.82387 -2.0753,-4.07373 0,-2.24986 0.9292,-4.07374 2.0753,-4.07374 1.1462,0 2.0753,1.82388 2.0753,4.07374 z"
             sodipodi:ry="4.0737319"
             sodipodi:rx="2.0752974"
             sodipodi:cy="-168.35516"
             sodipodi:cx="2135.6345"
             id="path9469"
             style="fill:#008000;fill-opacity:1;stroke:none"
             sodipodi:type="arc" />
          <path
             sodipodi:type="arc"
             style="fill:#000000;fill-opacity:1;stroke:none"
             id="path9471"
             sodipodi:cx="2135.6345"
             sodipodi:cy="-168.35516"
             sodipodi:rx="2.0752974"
             sodipodi:ry="4.0737319"
             d="m 2137.7098,-168.35516 c 0,2.24986 -0.9291,4.07373 -2.0753,4.07373 -1.1461,0 -2.0753,-1.82387 -2.0753,-4.07373 0,-2.24986 0.9292,-4.07374 2.0753,-4.07374 1.1462,0 2.0753,1.82388 2.0753,4.07374 z"
             transform="matrix(1.0740741,0,0,0.67441862,-920.2296,470.42669)" />
          <path
             transform="matrix(0.38888894,0,0,0.24418608,541.93392,396.45756)"
             d="m 2137.7098,-168.35516 c 0,2.24986 -0.9291,4.07373 -2.0753,4.07373 -1.1461,0 -2.0753,-1.82387 -2.0753,-4.07373 0,-2.24986 0.9292,-4.07374 2.0753,-4.07374 1.1462,0 2.0753,1.82388 2.0753,4.07374 z"
             sodipodi:ry="4.0737319"
             sodipodi:rx="2.0752974"
             sodipodi:cy="-168.35516"
             sodipodi:cx="2135.6345"
             id="path9473"
             style="fill:#ffffff;fill-opacity:1;stroke:none"
             sodipodi:type="arc" />
        </g>
      </g>
      <path
         sodipodi:nodetypes="cccccc"
         inkscape:connector-curvature="0"
         id="path9475"
         d="m 2520.4938,1180.9087 c -24.9381,79.7927 127,75.6401 102.8262,0.4236 l -5.3463,1.2944 c -10.5799,26.0313 -21.5823,13.0433 -44.7783,11.1167 -27.8896,3.8099 -37.4228,14.1926 -47.4943,-11.4404 z"
         style="fill:url(#radialGradient9481);fill-opacity:1;stroke:none" />
      <path
         sodipodi:nodetypes="ccc"
         inkscape:connector-curvature="0"
         id="path9477"
         d="m 2521.3411,1181.756 c 31.3809,6.7335 75.027,7.8434 101.6735,0 9.6182,-84.4911 -116.2551,-73.0666 -101.6735,0 z"
         style="fill:url(#radialGradient9483);fill-opacity:1;stroke:none" />
      <path
         sodipodi:nodetypes="cc"
         inkscape:connector-curvature="0"
         id="path10325"
         d="m 2564.7309,1182.2409 -28.2426,-5.8787"
         style="fill:none;stroke:#000000;stroke-width:8.10000038;stroke-linecap:butt;stroke-linejoin:miter;stroke-miterlimit:4;stroke-opacity:1;stroke-dasharray:none" />
      <path
         style="fill:none;stroke:#000000;stroke-width:8.10000038;stroke-linecap:butt;stroke-linejoin:miter;stroke-miterlimit:4;stroke-opacity:1;stroke-dasharray:none"
         d="m 2579.1954,1182.2409 28.4194,-5.8787"
         id="path10327"
         inkscape:connector-curvature="0"
         sodipodi:nodetypes="cc" />
    </g>
    <g
       id="g9519"
       transform="translate(-1865.2955,-408.1401)"
       inkscape:export-filename="ninjas/face-0-angry.png"
       inkscape:export-xdpi="90"
       inkscape:export-ydpi="90">
      <g
         id="g9521"
         transform="translate(191.01973,0.87507852)">
        <path
           sodipodi:nodetypes="cccc"
           inkscape:connector-curvature="0"
           id="path9523"
           d="m 2371.0122,1201.9541 c 2.104,-9.0947 2.4109,-18.1893 0,-27.284 -20.4094,-10.7022 -31.9053,12.0078 -24.3862,27.284 8.0016,-0.7218 17.4311,-2.9415 24.3862,0 z"
           style="fill:#ffffff;stroke:none" />
        <path
           sodipodi:nodetypes="cccc"
           inkscape:connector-curvature="0"
           id="path9525"
           d="m 2390.5859,1201.9541 c -2.104,-9.0947 -2.4109,-18.1893 0,-27.284 20.4094,-10.7022 31.9053,12.0078 24.3862,27.284 -8.0016,-0.7218 -17.4311,-2.9415 -24.3862,0 z"
           style="fill:#ffffff;stroke:none" />
        <g
           transform="matrix(2.8099776,0,0,2.8099776,-1496.729,187.49222)"
           id="g9527">
          <path
             sodipodi:type="arc"
             style="fill:#008000;fill-opacity:1;stroke:none"
             id="path9529"
             sodipodi:cx="2135.6345"
             sodipodi:cy="-168.35516"
             sodipodi:rx="2.0752974"
             sodipodi:ry="4.0737319"
             d="m 2137.7098,-168.35516 c 0,2.24986 -0.9291,4.07373 -2.0753,4.07373 -1.1461,0 -2.0753,-1.82387 -2.0753,-4.07373 0,-2.24986 0.9292,-4.07374 2.0753,-4.07374 1.1462,0 2.0753,1.82388 2.0753,4.07374 z"
             transform="matrix(1.5925926,0,0,1,-2027.5956,525.24)" />
          <path
             transform="matrix(1.0740741,0,0,0.67441862,-920.2296,470.42669)"
             d="m 2137.7098,-168.35516 c 0,2.24986 -0.9291,4.07373 -2.0753,4.07373 -1.1461,0 -2.0753,-1.82387 -2.0753,-4.07373 0,-2.24986 0.9292,-4.07374 2.0753,-4.07374 1.1462,0 2.0753,1.82388 2.0753,4.07374 z"
             sodipodi:ry="4.0737319"
             sodipodi:rx="2.0752974"
             sodipodi:cy="-168.35516"
             sodipodi:cx="2135.6345"
             id="path9531"
             style="fill:#000000;fill-opacity:1;stroke:none"
             sodipodi:type="arc" />
          <path
             sodipodi:type="arc"
             style="fill:#ffffff;fill-opacity:1;stroke:none"
             id="path9533"
             sodipodi:cx="2135.6345"
             sodipodi:cy="-168.35516"
             sodipodi:rx="2.0752974"
             sodipodi:ry="4.0737319"
             d="m 2137.7098,-168.35516 c 0,2.24986 -0.9291,4.07373 -2.0753,4.07373 -1.1461,0 -2.0753,-1.82387 -2.0753,-4.07373 0,-2.24986 0.9292,-4.07374 2.0753,-4.07374 1.1462,0 2.0753,1.82388 2.0753,4.07374 z"
             transform="matrix(0.38888894,0,0,0.24418608,541.93392,396.45756)" />
        </g>
        <g
           transform="matrix(2.8099776,0,0,2.8099776,-1460.8004,187.49222)"
           id="g9535"
           style="fill:url(#radialGradient9547)">
          <path
             sodipodi:type="arc"
             style="fill:#008000;fill-opacity:1;stroke:none"
             id="path9537"
             sodipodi:cx="2135.6345"
             sodipodi:cy="-168.35516"
             sodipodi:rx="2.0752974"
             sodipodi:ry="4.0737319"
             d="m 2137.7098,-168.35516 c 0,2.24986 -0.9291,4.07373 -2.0753,4.07373 -1.1461,0 -2.0753,-1.82387 -2.0753,-4.07373 0,-2.24986 0.9292,-4.07374 2.0753,-4.07374 1.1462,0 2.0753,1.82388 2.0753,4.07374 z"
             transform="matrix(1.5925926,0,0,1,-2027.5956,525.24)" />
          <path
             transform="matrix(1.0740741,0,0,0.67441862,-920.2296,470.42669)"
             d="m 2137.7098,-168.35516 c 0,2.24986 -0.9291,4.07373 -2.0753,4.07373 -1.1461,0 -2.0753,-1.82387 -2.0753,-4.07373 0,-2.24986 0.9292,-4.07374 2.0753,-4.07374 1.1462,0 2.0753,1.82388 2.0753,4.07374 z"
             sodipodi:ry="4.0737319"
             sodipodi:rx="2.0752974"
             sodipodi:cy="-168.35516"
             sodipodi:cx="2135.6345"
             id="path9539"
             style="fill:#000000;fill-opacity:1;stroke:none"
             sodipodi:type="arc" />
          <path
             sodipodi:type="arc"
             style="fill:#ffffff;fill-opacity:1;stroke:none"
             id="path9541"
             sodipodi:cx="2135.6345"
             sodipodi:cy="-168.35516"
             sodipodi:rx="2.0752974"
             sodipodi:ry="4.0737319"
             d="m 2137.7098,-168.35516 c 0,2.24986 -0.9291,4.07373 -2.0753,4.07373 -1.1461,0 -2.0753,-1.82387 -2.0753,-4.07373 0,-2.24986 0.9292,-4.07374 2.0753,-4.07374 1.1462,0 2.0753,1.82388 2.0753,4.07374 z"
             transform="matrix(0.38888894,0,0,0.24418608,541.93392,396.45756)" />
        </g>
      </g>
      <path
         style="fill:url(#radialGradient9549);fill-opacity:1;stroke:none"
         d="m 2520.4938,1180.9087 c -24.9381,79.7927 127,75.6401 102.8262,0.4236 l -5.3463,1.2944 c -10.5799,26.0313 -21.5823,13.0433 -44.7783,11.1167 -27.8896,3.8099 -37.4228,14.1926 -47.4943,-11.4404 z"
         id="path9543"
         inkscape:connector-curvature="0"
         sodipodi:nodetypes="cccccc" />
      <path
         style="fill:url(#radialGradient9551);fill-opacity:1;stroke:none"
         d="m 2521.3411,1181.756 c 31.3809,6.7335 75.027,7.8434 101.6735,0 9.6182,-84.4911 -116.2551,-73.0666 -101.6735,0 z"
         id="path9545"
         inkscape:connector-curvature="0"
         sodipodi:nodetypes="ccc" />
      <path
         style="fill:none;stroke:#000000;stroke-width:8.10000038;stroke-linecap:butt;stroke-linejoin:miter;stroke-miterlimit:4;stroke-opacity:1;stroke-dasharray:none"
         d="m 2564.3444,1187.2409 -27.5355,-13.8787"
         id="path9553"
         inkscape:connector-curvature="0"
         sodipodi:nodetypes="cc" />
      <path
         sodipodi:nodetypes="cc"
         inkscape:connector-curvature="0"
         id="path10323"
         d="m 2578.8089,1187.2409 27.5355,-13.8787"
         style="fill:none;stroke:#000000;stroke-width:8.10000038;stroke-linecap:butt;stroke-linejoin:miter;stroke-miterlimit:4;stroke-opacity:1;stroke-dasharray:none" />
    </g>
  </g>
</svg>
