<?xml version="1.0" encoding="UTF-8" standalone="no"?>
<!-- Created with Inkscape (http://www.inkscape.org/) -->

<svg
   xmlns:dc="http://purl.org/dc/elements/1.1/"
   xmlns:cc="http://creativecommons.org/ns#"
   xmlns:rdf="http://www.w3.org/1999/02/22-rdf-syntax-ns#"
   xmlns:svg="http://www.w3.org/2000/svg"
   xmlns="http://www.w3.org/2000/svg"
   xmlns:xlink="http://www.w3.org/1999/xlink"
   xmlns:sodipodi="http://sodipodi.sourceforge.net/DTD/sodipodi-0.dtd"
   xmlns:inkscape="http://www.inkscape.org/namespaces/inkscape"
   width="800"
   height="480"
   id="svg2"
   version="1.1"
   inkscape:version="0.48.3.1 r9886"
   sodipodi:docname="burger.svg">
  <defs
     id="defs4">
    <linearGradient
       inkscape:collect="always"
       id="linearGradient3819">
      <stop
         style="stop-color:#d45500;stop-opacity:1;"
         offset="0"
         id="stop3821" />
      <stop
         style="stop-color:#a84300;stop-opacity:1"
         offset="1"
         id="stop3823" />
    </linearGradient>
    <linearGradient
       inkscape:collect="always"
       id="linearGradient3041">
      <stop
         style="stop-color:#d45500;stop-opacity:1;"
         offset="0"
         id="stop3043" />
      <stop
         style="stop-color:#a84300;stop-opacity:1"
         offset="1"
         id="stop3045" />
    </linearGradient>
    <linearGradient
       inkscape:collect="always"
       id="linearGradient3158">
      <stop
         style="stop-color:#333333;stop-opacity:1"
         offset="0"
         id="stop3160" />
      <stop
         style="stop-color:#666666;stop-opacity:1"
         offset="1"
         id="stop3162" />
    </linearGradient>
    <linearGradient
       inkscape:collect="always"
       id="linearGradient3150">
      <stop
         style="stop-color:#cccccc;stop-opacity:1"
         offset="0"
         id="stop3152" />
      <stop
         style="stop-color:#808080;stop-opacity:1"
         offset="1"
         id="stop3154" />
    </linearGradient>
    <linearGradient
       inkscape:collect="always"
       id="linearGradient3127">
      <stop
         style="stop-color:#502d16;stop-opacity:1"
         offset="0"
         id="stop3129" />
      <stop
         id="stop3135"
         offset="0.75760931"
         style="stop-color:#28170b;stop-opacity:1" />
      <stop
         style="stop-color:#c87137;stop-opacity:1"
         offset="1"
         id="stop3131" />
    </linearGradient>
    <linearGradient
       inkscape:collect="always"
       xlink:href="#linearGradient3127"
       id="linearGradient3133"
       x1="384"
       y1="612.36218"
       x2="384"
       y2="844.36218"
       gradientUnits="userSpaceOnUse" />
    <linearGradient
       inkscape:collect="always"
       xlink:href="#linearGradient3150"
       id="linearGradient3156"
       x1="592"
       y1="136"
       x2="696"
       y2="136"
       gradientUnits="userSpaceOnUse" />
    <linearGradient
       inkscape:collect="always"
       xlink:href="#linearGradient3158"
       id="linearGradient3164"
       x1="584"
       y1="72"
       x2="704"
       y2="72"
       gradientUnits="userSpaceOnUse" />
    <radialGradient
       inkscape:collect="always"
       xlink:href="#linearGradient3041"
       id="radialGradient3817"
       cx="88.431778"
       cy="617.98859"
       fx="88.431778"
       fy="617.98859"
       r="119.99998"
       gradientTransform="matrix(1.2666669,0.26666671,-0.15659217,0.74381239,72.758565,145.1128)"
       gradientUnits="userSpaceOnUse" />
    <linearGradient
       inkscape:collect="always"
       xlink:href="#linearGradient3819"
       id="linearGradient3827"
       x1="72"
       y1="136"
       x2="256"
       y2="134"
       gradientUnits="userSpaceOnUse" />
  </defs>
  <sodipodi:namedview
     id="base"
     pagecolor="#ffffff"
     bordercolor="#666666"
     borderopacity="1.0"
     inkscape:pageopacity="0.0"
     inkscape:pageshadow="2"
     inkscape:zoom="2.1496046"
     inkscape:cx="542.52416"
     inkscape:cy="196.40167"
     inkscape:document-units="px"
     inkscape:current-layer="layer1"
     showgrid="true"
     inkscape:window-width="1885"
     inkscape:window-height="1060"
     inkscape:window-x="33"
     inkscape:window-y="-3"
     inkscape:window-maximized="1">
    <inkscape:grid
       type="xygrid"
       id="grid2993"
       empspacing="8"
       visible="true"
       enabled="true"
       snapvisiblegridlinesonly="true" />
  </sodipodi:namedview>
  <metadata
     id="metadata7">
    <rdf:RDF>
      <cc:Work
         rdf:about="">
        <dc:format>image/svg+xml</dc:format>
        <dc:type
           rdf:resource="http://purl.org/dc/dcmitype/StillImage" />
        <dc:title></dc:title>
      </cc:Work>
    </rdf:RDF>
  </metadata>
  <g
     inkscape:label="Layer 1"
     inkscape:groupmode="layer"
     id="layer1"
     transform="translate(0,-572.36218)">
    <g
       id="g3005"
       inkscape:export-filename="/home/aurelien/workspace/burgerparty/assets/burgeritems/salad.png"
       inkscape:export-xdpi="90"
       inkscape:export-ydpi="90"
       transform="matrix(0.48995856,0,0,0.48995856,-15.790883,461.22967)">
      <path
         d="m 360,587.36218 c 0,8.28427 -62.68014,15 -140,15 -77.31986,0 -140,-6.71573 -140,-15 0,-8.28427 62.68014,-15 140,-15 77.31986,0 140,6.71573 140,15 z"
         sodipodi:ry="15"
         sodipodi:rx="140"
         sodipodi:cy="587.36218"
         sodipodi:cx="220"
         id="path2999"
         style="fill:#008000;fill-opacity:1;fill-rule:nonzero;stroke:none"
         sodipodi:type="arc" />
      <path
         transform="translate(80,20)"
         sodipodi:type="arc"
         style="fill:#008000;fill-opacity:1;fill-rule:nonzero;stroke:none"
         id="path3001"
         sodipodi:cx="220"
         sodipodi:cy="587.36218"
         sodipodi:rx="140"
         sodipodi:ry="15"
         d="m 360,587.36218 c 0,8.28427 -62.68014,15 -140,15 -77.31986,0 -140,-6.71573 -140,-15 0,-8.28427 62.68014,-15 140,-15 77.31986,0 140,6.71573 140,15 z" />
      <path
         d="m 360,587.36218 c 0,8.28427 -62.68014,15 -140,15 -77.31986,0 -140,-6.71573 -140,-15 0,-8.28427 62.68014,-15 140,-15 77.31986,0 140,6.71573 140,15 z"
         sodipodi:ry="15"
         sodipodi:rx="140"
         sodipodi:cy="587.36218"
         sodipodi:cx="220"
         id="path3003"
         style="fill:#008000;fill-opacity:1;fill-rule:nonzero;stroke:none"
         sodipodi:type="arc"
         transform="translate(160,6)" />
    </g>
    <g
       id="g3092"
       inkscape:export-filename="/home/aurelien/workspace/burgerparty/assets/burgeritems/tomato.png"
       inkscape:export-xdpi="90"
       inkscape:export-ydpi="90"
       transform="matrix(0.48995856,0,0,0.48995856,-32.690469,454.03299)">
      <g
         transform="translate(40,0)"
         id="g3017">
        <path
           transform="translate(0,10)"
           style="fill:#d40000;fill-opacity:1;fill-rule:nonzero;stroke:none"
           d="m 280,692.36218 c 0,11.0457 -40.29437,20 -90,20 -49.70563,0 -90,-8.9543 -90,-20 l 0,-10 c 11.33683,-8.16277 49.54559,-10 90,-10 40.25143,0 90,-4.07251 90,10 z"
           id="path3014"
           inkscape:connector-curvature="0"
           sodipodi:nodetypes="ssscsss" />
        <path
           sodipodi:type="arc"
           style="fill:#ff0000;fill-opacity:1;fill-rule:nonzero;stroke:none"
           id="path3010"
           sodipodi:cx="190"
           sodipodi:cy="692.36218"
           sodipodi:rx="90"
           sodipodi:ry="20"
           d="m 280,692.36218 c 0,11.0457 -40.29437,20 -90,20 -49.70563,0 -90,-8.9543 -90,-20 0,-11.04569 40.29437,-20 90,-20 49.70563,0 90,8.95431 90,20 z" />
        <path
           sodipodi:type="arc"
           style="fill:#ff5555;fill-opacity:1;fill-rule:nonzero;stroke:none"
           id="path3012"
           sodipodi:cx="190"
           sodipodi:cy="692.36218"
           sodipodi:rx="70"
           sodipodi:ry="11.666667"
           d="m 260,692.36218 c 0,6.44332 -31.34007,11.66667 -70,11.66667 -38.65993,0 -70,-5.22335 -70,-11.66667 0,-6.44332 31.34007,-11.66666 70,-11.66666 38.65993,0 70,5.22334 70,11.66666 z" />
      </g>
      <g
         transform="translate(140,20)"
         id="g3022">
        <path
           sodipodi:nodetypes="ssscsss"
           inkscape:connector-curvature="0"
           id="path3024"
           d="m 280,692.36218 c 0,11.0457 -40.29437,20 -90,20 -49.70563,0 -90,-8.9543 -90,-20 l 0,-10 c 11.33683,-8.16277 49.54559,-10 90,-10 40.25143,0 90,-4.07251 90,10 z"
           style="fill:#d40000;fill-opacity:1;fill-rule:nonzero;stroke:none"
           transform="translate(0,10)" />
        <path
           d="m 280,692.36218 c 0,11.0457 -40.29437,20 -90,20 -49.70563,0 -90,-8.9543 -90,-20 0,-11.04569 40.29437,-20 90,-20 49.70563,0 90,8.95431 90,20 z"
           sodipodi:ry="20"
           sodipodi:rx="90"
           sodipodi:cy="692.36218"
           sodipodi:cx="190"
           id="path3026"
           style="fill:#ff0000;fill-opacity:1;fill-rule:nonzero;stroke:none"
           sodipodi:type="arc" />
        <path
           d="m 260,692.36218 c 0,6.44332 -31.34007,11.66667 -70,11.66667 -38.65993,0 -70,-5.22335 -70,-11.66667 0,-6.44332 31.34007,-11.66666 70,-11.66666 38.65993,0 70,5.22334 70,11.66666 z"
           sodipodi:ry="11.666667"
           sodipodi:rx="70"
           sodipodi:cy="692.36218"
           sodipodi:cx="190"
           id="path3028"
           style="fill:#ff5555;fill-opacity:1;fill-rule:nonzero;stroke:none"
           sodipodi:type="arc" />
      </g>
      <g
         id="g3030"
         transform="translate(200,0)">
        <path
           transform="translate(0,10)"
           style="fill:#d40000;fill-opacity:1;fill-rule:nonzero;stroke:none"
           d="m 280,692.36218 c 0,11.0457 -40.29437,20 -90,20 -49.70563,0 -90,-8.9543 -90,-20 l 0,-10 c 11.33683,-8.16277 49.54559,-10 90,-10 40.25143,0 90,-4.07251 90,10 z"
           id="path3032"
           inkscape:connector-curvature="0"
           sodipodi:nodetypes="ssscsss" />
        <path
           sodipodi:type="arc"
           style="fill:#ff0000;fill-opacity:1;fill-rule:nonzero;stroke:none"
           id="path3034"
           sodipodi:cx="190"
           sodipodi:cy="692.36218"
           sodipodi:rx="90"
           sodipodi:ry="20"
           d="m 280,692.36218 c 0,11.0457 -40.29437,20 -90,20 -49.70563,0 -90,-8.9543 -90,-20 0,-11.04569 40.29437,-20 90,-20 49.70563,0 90,8.95431 90,20 z" />
        <path
           sodipodi:type="arc"
           style="fill:#ff5555;fill-opacity:1;fill-rule:nonzero;stroke:none"
           id="path3036"
           sodipodi:cx="190"
           sodipodi:cy="692.36218"
           sodipodi:rx="70"
           sodipodi:ry="11.666667"
           d="m 260,692.36218 c 0,6.44332 -31.34007,11.66667 -70,11.66667 -38.65993,0 -70,-5.22335 -70,-11.66667 0,-6.44332 31.34007,-11.66666 70,-11.66666 38.65993,0 70,5.22334 70,11.66666 z" />
      </g>
      <g
         transform="translate(261.22968,8.1639551)"
         id="g3081">
        <path
           sodipodi:nodetypes="ssscsss"
           inkscape:connector-curvature="0"
           id="path3083"
           d="m 280,692.36218 c 0,11.0457 -40.29437,20 -90,20 -49.70563,0 -90,-8.9543 -90,-20 l 0,-10 c 11.33683,-8.16277 49.54559,-10 90,-10 40.25143,0 90,-4.07251 90,10 z"
           style="fill:#d40000;fill-opacity:1;fill-rule:nonzero;stroke:none"
           transform="translate(0,10)" />
        <path
           d="m 280,692.36218 c 0,11.0457 -40.29437,20 -90,20 -49.70563,0 -90,-8.9543 -90,-20 0,-11.04569 40.29437,-20 90,-20 49.70563,0 90,8.95431 90,20 z"
           sodipodi:ry="20"
           sodipodi:rx="90"
           sodipodi:cy="692.36218"
           sodipodi:cx="190"
           id="path3085"
           style="fill:#ff0000;fill-opacity:1;fill-rule:nonzero;stroke:none"
           sodipodi:type="arc" />
        <path
           d="m 260,692.36218 c 0,6.44332 -31.34007,11.66667 -70,11.66667 -38.65993,0 -70,-5.22335 -70,-11.66667 0,-6.44332 31.34007,-11.66666 70,-11.66666 38.65993,0 70,5.22334 70,11.66666 z"
           sodipodi:ry="11.666667"
           sodipodi:rx="70"
           sodipodi:cy="692.36218"
           sodipodi:cx="190"
           id="path3087"
           style="fill:#ff5555;fill-opacity:1;fill-rule:nonzero;stroke:none"
           sodipodi:type="arc" />
      </g>
    </g>
    <g
       id="g3052"
       transform="matrix(1.2222222,0,0,0.56666669,-106.22222,448.35693)"
       inkscape:export-filename="/home/aurelien/workspace/burgerparty/assets/burgeritems/steak.png"
       inkscape:export-xdpi="90"
       inkscape:export-ydpi="90">
      <path
         transform="translate(0,10)"
         style="fill:#800000;fill-opacity:1;fill-rule:nonzero;stroke:none"
         d="m 280,702.36218 c 0,11.0457 -40.29437,20 -90,20 -49.70563,0 -90,-8.9543 -90,-20 l 0,-20 c 11.33683,-8.16277 49.54559,-10 90,-10 40.25143,0 90,-4.07251 90,10 z"
         id="path3054"
         inkscape:connector-curvature="0"
         sodipodi:nodetypes="ssscsss" />
      <path
         sodipodi:type="arc"
         style="fill:#aa0000;fill-opacity:1;fill-rule:nonzero;stroke:none"
         id="path3056"
         sodipodi:cx="190"
         sodipodi:cy="692.36218"
         sodipodi:rx="90"
         sodipodi:ry="20"
         d="m 280,692.36218 c 0,11.0457 -40.29437,20 -90,20 -49.70563,0 -90,-8.9543 -90,-20 0,-11.04569 40.29437,-20 90,-20 49.70563,0 90,8.95431 90,20 z" />
    </g>
    <g
       id="g3102"
       inkscape:export-filename="/home/aurelien/workspace/burgerparty/assets/burgeritems/cheese.png"
       inkscape:export-xdpi="90"
       inkscape:export-ydpi="90">
      <path
         sodipodi:nodetypes="cccccccccssssssssss"
         inkscape:connector-curvature="0"
         style="fill:#d4aa00;fill-opacity:1;fill-rule:nonzero;stroke:none"
         d="m 32,877.36218 c -5.333333,6.66667 -10.259776,9.26442 -16,20 l 1,1 c 3.056987,-4.50332 5.537196,-4.9155 9.051302,-5 l 201.955748,0 c 4.39888,0.30246 8.07567,-0.33993 10.99295,5 l 1,-1 c -3.41035,-8.83002 -10.66667,-13.33333 -16,-20 z m 13,2 c 3.295547,0 5.96875,1.32098 5.96875,2.96875 0,1.64777 -2.673203,3 -5.96875,3 -3.295547,0 -5.96875,-1.35223 -5.96875,-3 0,-1.64777 2.673203,-2.96875 5.96875,-2.96875 z m 28,3 c 6.066052,0 10.96875,2.22549 10.96875,4.96875 0,2.74326 -4.902698,4.96875 -10.96875,4.96875 -6.066052,0 -10.96875,-2.22549 -10.96875,-4.96875 0,-2.74326 4.902698,-4.96875 10.96875,-4.96875 z"
         id="path3100" />
      <path
         id="rect3060"
         transform="translate(0,572.36218)"
         d="m 32,304 c -5.356678,6.94553 -11.478712,12.10523 -16,21 2.307061,-4.1801 5.996845,-4.96624 9.993152,-5 l 201.955748,0 c 9.0722,0.27897 10.72917,2.5935 12.0511,5 -1.74082,-7.79834 -10.52633,-14.03119 -16,-21 z m 13,2 c 3.295547,0 5.96875,1.32098 5.96875,2.96875 0,1.64777 -2.673203,3 -5.96875,3 -3.295547,0 -5.96875,-1.35223 -5.96875,-3 C 39.03125,307.32098 41.704453,306 45,306 z m 28,3 c 6.066052,0 10.96875,2.22549 10.96875,4.96875 0,2.74326 -4.902698,4.96875 -10.96875,4.96875 -6.066052,0 -10.96875,-2.22549 -10.96875,-4.96875 C 62.03125,311.22549 66.933948,309 73,309 z"
         style="fill:#ffd42a;fill-opacity:1;fill-rule:nonzero;stroke:none"
         inkscape:connector-curvature="0"
         sodipodi:nodetypes="cccccccssssssssss" />
    </g>
    <g
       id="g3111"
       inkscape:export-filename="/home/aurelien/workspace/burgerparty/assets/burgeritems/bottom.png"
       inkscape:export-xdpi="90"
       inkscape:export-ydpi="90">
      <path
         sodipodi:nodetypes="cczszccc"
         inkscape:connector-curvature="0"
         id="rect2991"
         transform="translate(0,572.36218)"
         d="m 16,120 0,9.0625 c 2.229912,9.69536 11.106677,13.57749 16,14.9375 4.893323,1.36001 46.562386,4 104,4 57.43761,0 98.6357,-2.42069 104,-4 5.3643,-1.57931 15.8012,-8.23485 16,-14.9375 L 256,120 z"
         style="fill:url(#linearGradient3827);fill-opacity:1;fill-rule:nonzero;stroke:none" />
      <path
         transform="translate(0,572.36218)"
         d="m 256,120 c 0,4.41828 -53.72583,8 -120,8 -66.27417,0 -120,-3.58172 -120,-8 0,-4.41828 53.72583,-8 120,-8 66.27417,0 120,3.58172 120,8 z"
         sodipodi:ry="8"
         sodipodi:rx="120"
         sodipodi:cy="120"
         sodipodi:cx="136"
         id="path3106"
         style="fill:#ffeeaa;fill-opacity:1;fill-rule:nonzero;stroke:none"
         sodipodi:type="arc" />
    </g>
    <path
       style="fill:url(#radialGradient3817);fill-opacity:1;fill-rule:nonzero;stroke:none"
       d="M 135.99998,604.36218 C 69.727033,604.36218 16,625.19617 16,650.89433 c 0,0.49203 0.0372,0.97945 0.07631,1.46785 0,0 15.92369,8 119.92369,8 104,0 119.92365,-8 119.92365,-8 0.0392,-0.48835 0.0763,-0.97584 0.0763,-1.46785 0,-25.69816 -53.72703,-46.53215 -119.99999,-46.53215 z"
       id="path2985"
       inkscape:connector-curvature="0"
       inkscape:export-filename="/home/aurelien/workspace/burgerparty/assets/burgeritems/top.png"
       inkscape:export-xdpi="90"
       inkscape:export-ydpi="90"
       sodipodi:nodetypes="csczcscc" />
    <g
       id="g3137"
       inkscape:export-filename="/home/aurelien/workspace/burgerparty-android/assets/shelf.png"
       inkscape:export-xdpi="90"
       inkscape:export-ydpi="90">
      <rect
         y="604.36218"
         x="272"
         height="248"
         width="248"
         id="rect3115"
         style="fill:#a05a2c;fill-opacity:1;fill-rule:nonzero;stroke:none" />
      <rect
         style="fill:url(#linearGradient3133);fill-opacity:1;fill-rule:nonzero;stroke:none"
         id="rect3117"
         width="232"
         height="232"
         x="280"
         y="612.36218" />
    </g>
    <g
       id="g3146"
       inkscape:export-filename="/home/aurelien/workspace/burgerparty-android/assets/trash.png"
       inkscape:export-xdpi="90"
       inkscape:export-ydpi="90">
      <path
         sodipodi:nodetypes="ccccc"
         inkscape:connector-curvature="0"
         id="rect3141"
         d="m 584,64 120,0 -16,120 c -24,8 -64,8 -88,0 z"
         style="fill:url(#linearGradient3156);fill-opacity:1;fill-rule:nonzero;stroke:none"
         transform="translate(0,572.36218)" />
      <path
         transform="translate(0,564.36218)"
         d="m 704,72 c 0,4.418278 -26.86292,8 -60,8 -33.13708,0 -60,-3.581722 -60,-8 0,-4.418278 26.86292,-8 60,-8 33.13708,0 60,3.581722 60,8 z"
         sodipodi:ry="8"
         sodipodi:rx="60"
         sodipodi:cy="72"
         sodipodi:cx="644"
         id="path3144"
         style="fill:url(#linearGradient3164);fill-opacity:1;fill-rule:nonzero;stroke:none"
         sodipodi:type="arc" />
    </g>
    <path
       style="fill:#00ff00;stroke:#409e48;stroke-width:5;stroke-linecap:round;stroke-linejoin:round;stroke-miterlimit:4;stroke-opacity:1;stroke-dasharray:none"
       d="m 560,344 c 22.93524,20.26221 44.77185,43.08791 64,72 32.76198,-61.48562 73.46322,-113.44413 112,-168 -40,40 -82.7896,78.98463 -112,120 -22.31546,-13.89276 -42.79625,-16.77747 -64,-24 z"
       id="path3051"
       inkscape:connector-curvature="0"
       transform="translate(0,572.36218)"
       sodipodi:nodetypes="ccccc"
       inkscape:export-filename="/home/aurelien/workspace/burgerparty/assets/done.png"
       inkscape:export-xdpi="90"
       inkscape:export-ydpi="90" />
  </g>
</svg>
