<?xml version="1.0" encoding="UTF-8" standalone="no"?>
<!-- Created with Inkscape (http://www.inkscape.org/) -->

<svg
   xmlns:dc="http://purl.org/dc/elements/1.1/"
   xmlns:cc="http://creativecommons.org/ns#"
   xmlns:rdf="http://www.w3.org/1999/02/22-rdf-syntax-ns#"
   xmlns:svg="http://www.w3.org/2000/svg"
   xmlns="http://www.w3.org/2000/svg"
   xmlns:xlink="http://www.w3.org/1999/xlink"
   xmlns:sodipodi="http://sodipodi.sourceforge.net/DTD/sodipodi-0.dtd"
   xmlns:inkscape="http://www.inkscape.org/namespaces/inkscape"
   width="1600px"
   height="1200px"
   id="svg6972"
   version="1.1"
   inkscape:version="0.48.4 r9939"
   sodipodi:docname="ui.svg">
  <defs
     id="defs6974">
    <linearGradient
       id="linearGradient11084"
       inkscape:collect="always">
      <stop
         id="stop11086"
         offset="0"
         style="stop-color:#d57a3c;stop-opacity:1" />
      <stop
         id="stop11088"
         offset="1"
         style="stop-color:#ffa66b;stop-opacity:1" />
    </linearGradient>
    <linearGradient
       id="linearGradient11078"
       inkscape:collect="always">
      <stop
         id="stop11080"
         offset="0"
         style="stop-color:#d7712c;stop-opacity:1" />
      <stop
         id="stop11082"
         offset="1"
         style="stop-color:#ffa366;stop-opacity:1" />
    </linearGradient>
    <linearGradient
       inkscape:collect="always"
       id="linearGradient10881">
      <stop
         style="stop-color:#000000;stop-opacity:1"
         offset="0"
         id="stop10883" />
      <stop
         style="stop-color:#550000;stop-opacity:1"
         offset="1"
         id="stop10885" />
    </linearGradient>
    <linearGradient
       inkscape:collect="always"
       id="linearGradient10759">
      <stop
         style="stop-color:#d57a3c;stop-opacity:1"
         offset="0"
         id="stop10761" />
      <stop
         style="stop-color:#ff9955;stop-opacity:0.90588236"
         offset="1"
         id="stop10763" />
    </linearGradient>
    <linearGradient
       id="linearGradient10732"
       inkscape:collect="always">
      <stop
         id="stop10734"
         offset="0"
         style="stop-color:#ffffff;stop-opacity:1" />
      <stop
         id="stop10736"
         offset="1"
         style="stop-color:#ffffff;stop-opacity:0" />
    </linearGradient>
    <linearGradient
       inkscape:collect="always"
       id="linearGradient10714">
      <stop
         style="stop-color:#808080;stop-opacity:1;"
         offset="0"
         id="stop10716" />
      <stop
         style="stop-color:#808080;stop-opacity:0;"
         offset="1"
         id="stop10718" />
    </linearGradient>
    <linearGradient
       inkscape:collect="always"
       id="linearGradient10693">
      <stop
         style="stop-color:#d7712c;stop-opacity:1"
         offset="0"
         id="stop10695" />
      <stop
         style="stop-color:#ff9955;stop-opacity:0.90588236"
         offset="1"
         id="stop10697" />
    </linearGradient>
    <linearGradient
       inkscape:collect="always"
       id="linearGradient8524">
      <stop
         style="stop-color:#006a86;stop-opacity:1"
         offset="0"
         id="stop8526" />
      <stop
         style="stop-color:#004b5f;stop-opacity:0;"
         offset="1"
         id="stop8528" />
    </linearGradient>
    <linearGradient
       inkscape:collect="always"
       id="linearGradient8516">
      <stop
         style="stop-color:#62a9ba;stop-opacity:1"
         offset="0"
         id="stop8518" />
      <stop
         style="stop-color:#86bdca;stop-opacity:0;"
         offset="1"
         id="stop8520" />
    </linearGradient>
    <linearGradient
       id="linearGradient8400"
       inkscape:collect="always">
      <stop
         id="stop8402"
         offset="0"
         style="stop-color:#ffffff;stop-opacity:1" />
      <stop
         id="stop8404"
         offset="1"
         style="stop-color:#ffffff;stop-opacity:0" />
    </linearGradient>
    <linearGradient
       inkscape:collect="always"
       id="linearGradient8388">
      <stop
         style="stop-color:#00495c;stop-opacity:1"
         offset="0"
         id="stop8390" />
      <stop
         style="stop-color:#164450;stop-opacity:0;"
         offset="1"
         id="stop8392" />
    </linearGradient>
    <linearGradient
       inkscape:collect="always"
       xlink:href="#linearGradient5684"
       id="linearGradient4913"
       gradientUnits="userSpaceOnUse"
       x1="1128.1801"
       y1="299.10449"
       x2="1128.1801"
       y2="214.16422" />
    <linearGradient
       id="linearGradient5684">
      <stop
         id="stop5686"
         offset="0"
         style="stop-color:#f3a000;stop-opacity:1" />
      <stop
         style="stop-color:#ffd520;stop-opacity:1"
         offset="0.29640684"
         id="stop5688" />
      <stop
         style="stop-color:#ffdf60;stop-opacity:1"
         offset="0.59281367"
         id="stop5690" />
      <stop
         id="stop5692"
         offset="1"
         style="stop-color:#ffdf61;stop-opacity:1" />
    </linearGradient>
    <radialGradient
       inkscape:collect="always"
       xlink:href="#linearGradient5564-9-7-5"
       id="radialGradient5698"
       cx="1115.6848"
       cy="226.61589"
       fx="1115.6848"
       fy="226.61589"
       r="60.494766"
       gradientTransform="matrix(1.4635853,0.00388833,-0.00444936,1.5361217,-516.20665,-124.46658)"
       gradientUnits="userSpaceOnUse" />
    <linearGradient
       id="linearGradient5564-9-7-5">
      <stop
         style="stop-color:#ffffff;stop-opacity:1;"
         offset="0"
         id="stop5566-5-4-3" />
      <stop
         style="stop-color:#ffffff;stop-opacity:0;"
         offset="1"
         id="stop5568-7-0-3" />
    </linearGradient>
    <linearGradient
       inkscape:collect="always"
       xlink:href="#linearGradient5684"
       id="linearGradient7023"
       gradientUnits="userSpaceOnUse"
       x1="1128.1801"
       y1="299.10449"
       x2="1128.1801"
       y2="214.16422" />
    <linearGradient
       id="linearGradient7025">
      <stop
         id="stop7027"
         offset="0"
         style="stop-color:#f3a000;stop-opacity:1" />
      <stop
         style="stop-color:#ffd520;stop-opacity:1"
         offset="0.29640684"
         id="stop7029" />
      <stop
         style="stop-color:#ffdf60;stop-opacity:1"
         offset="0.59281367"
         id="stop7031" />
      <stop
         id="stop7033"
         offset="1"
         style="stop-color:#ffdf61;stop-opacity:1" />
    </linearGradient>
    <radialGradient
       inkscape:collect="always"
       xlink:href="#linearGradient5564-9-7-5"
       id="radialGradient7035"
       cx="1115.6848"
       cy="226.61589"
       fx="1115.6848"
       fy="226.61589"
       r="60.494766"
       gradientTransform="matrix(1.4635853,0.00388833,-0.00444936,1.5361217,-516.20665,-124.46658)"
       gradientUnits="userSpaceOnUse" />
    <linearGradient
       id="linearGradient7037">
      <stop
         style="stop-color:#ffffff;stop-opacity:1;"
         offset="0"
         id="stop7039" />
      <stop
         style="stop-color:#ffffff;stop-opacity:0;"
         offset="1"
         id="stop7041" />
    </linearGradient>
    <filter
       inkscape:collect="always"
       id="filter8253">
      <feGaussianBlur
         inkscape:collect="always"
         stdDeviation="0.92"
         id="feGaussianBlur8255" />
    </filter>
    <filter
       inkscape:collect="always"
       id="filter8347">
      <feGaussianBlur
         inkscape:collect="always"
         stdDeviation="0.22"
         id="feGaussianBlur8349" />
    </filter>
    <filter
       inkscape:collect="always"
       id="filter8361">
      <feGaussianBlur
         inkscape:collect="always"
         stdDeviation="0.22"
         id="feGaussianBlur8363" />
    </filter>
    <filter
       inkscape:collect="always"
       id="filter8382">
      <feGaussianBlur
         inkscape:collect="always"
         stdDeviation="0.039156729"
         id="feGaussianBlur8384" />
    </filter>
    <linearGradient
       inkscape:collect="always"
       xlink:href="#linearGradient8400"
       id="linearGradient8394"
       x1="360"
       y1="69.025002"
       x2="360"
       y2="80.025002"
       gradientUnits="userSpaceOnUse" />
    <linearGradient
       inkscape:collect="always"
       xlink:href="#linearGradient8388"
       id="linearGradient8398"
       gradientUnits="userSpaceOnUse"
       x1="360"
       y1="69.025002"
       x2="360"
       y2="80.025002"
       gradientTransform="translate(0,0.999998)" />
    <filter
       inkscape:collect="always"
       id="filter8496"
       x="-0.027046975"
       width="1.0540939"
       y="-0.21303998"
       height="1.42608">
      <feGaussianBlur
         inkscape:collect="always"
         stdDeviation="1.6000192"
         id="feGaussianBlur8498" />
    </filter>
    <linearGradient
       inkscape:collect="always"
       xlink:href="#linearGradient8516"
       id="linearGradient8522"
       x1="354.95682"
       y1="66.138969"
       x2="354.95682"
       y2="99.941292"
       gradientUnits="userSpaceOnUse" />
    <linearGradient
       inkscape:collect="always"
       xlink:href="#linearGradient8524"
       id="linearGradient8530"
       x1="353.68304"
       y1="66.512497"
       x2="353.68304"
       y2="100.79952"
       gradientUnits="userSpaceOnUse" />
    <filter
       inkscape:collect="always"
       id="filter8548">
      <feGaussianBlur
         inkscape:collect="always"
         stdDeviation="0.2000024"
         id="feGaussianBlur8550" />
    </filter>
    <filter
       inkscape:collect="always"
       id="filter8558"
       x="-0.033808718"
       width="1.0676174"
       y="-0.26629997"
       height="1.5325999">
      <feGaussianBlur
         inkscape:collect="always"
         stdDeviation="2.000024"
         id="feGaussianBlur8560" />
    </filter>
    <linearGradient
       inkscape:collect="always"
       xlink:href="#linearGradient8516"
       id="linearGradient8584"
       gradientUnits="userSpaceOnUse"
       x1="354.95682"
       y1="66.138969"
       x2="354.95682"
       y2="99.941292" />
    <linearGradient
       inkscape:collect="always"
       xlink:href="#linearGradient5684"
       id="linearGradient10667"
       gradientUnits="userSpaceOnUse"
       x1="1128.1801"
       y1="299.10449"
       x2="1128.1801"
       y2="214.16422" />
    <radialGradient
       inkscape:collect="always"
       xlink:href="#linearGradient5564-9-7-5"
       id="radialGradient10669"
       gradientUnits="userSpaceOnUse"
       gradientTransform="matrix(1.4635853,0.00388833,-0.00444936,1.5361217,-516.20665,-124.46658)"
       cx="1115.6848"
       cy="226.61589"
       fx="1115.6848"
       fy="226.61589"
       r="60.494766" />
    <linearGradient
       inkscape:collect="always"
       xlink:href="#linearGradient10693"
       id="linearGradient10709"
       x1="136"
       y1="224"
       x2="112"
       y2="192"
       gradientUnits="userSpaceOnUse" />
    <linearGradient
       inkscape:collect="always"
       xlink:href="#linearGradient10714"
       id="linearGradient10722"
       x1="148"
       y1="176"
       x2="145"
       y2="176"
       gradientUnits="userSpaceOnUse"
       gradientTransform="translate(1,0)" />
    <linearGradient
       inkscape:collect="always"
       xlink:href="#linearGradient10714"
       id="linearGradient10726"
       gradientUnits="userSpaceOnUse"
       gradientTransform="translate(-23,-4)"
       x1="148"
       y1="176"
       x2="145"
       y2="176" />
    <linearGradient
       inkscape:collect="always"
       xlink:href="#linearGradient10732"
       id="linearGradient10730"
       gradientUnits="userSpaceOnUse"
       gradientTransform="matrix(-1,0,0,1,287,-3)"
       x1="148"
       y1="176"
       x2="145"
       y2="176" />
    <linearGradient
       inkscape:collect="always"
       xlink:href="#linearGradient10732"
       id="linearGradient10740"
       gradientUnits="userSpaceOnUse"
       gradientTransform="matrix(-1,0,0,1,263,-7)"
       x1="148"
       y1="176"
       x2="145"
       y2="176" />
    <linearGradient
       inkscape:collect="always"
       xlink:href="#linearGradient10732"
       id="linearGradient10744"
       gradientUnits="userSpaceOnUse"
       gradientTransform="matrix(0,-1,1,0,-48.3867,305.3867)"
       x1="148"
       y1="176"
       x2="145"
       y2="176" />
    <linearGradient
       inkscape:collect="always"
       xlink:href="#linearGradient10714"
       id="linearGradient10748"
       gradientUnits="userSpaceOnUse"
       gradientTransform="matrix(0,1,-1,0,311.3867,18.3867)"
       x1="148.64455"
       y1="176.3867"
       x2="147.3008"
       y2="176.29295" />
    <linearGradient
       inkscape:collect="always"
       xlink:href="#linearGradient10693"
       id="linearGradient10752"
       gradientUnits="userSpaceOnUse"
       x1="136"
       y1="224"
       x2="112"
       y2="192"
       gradientTransform="translate(80,0)" />
    <linearGradient
       inkscape:collect="always"
       xlink:href="#linearGradient10759"
       id="linearGradient10767"
       x1="216"
       y1="184"
       x2="196"
       y2="182"
       gradientUnits="userSpaceOnUse" />
    <linearGradient
       inkscape:collect="always"
       xlink:href="#linearGradient10714"
       id="linearGradient10781"
       gradientUnits="userSpaceOnUse"
       gradientTransform="translate(140,-1)"
       x1="148"
       y1="176"
       x2="145"
       y2="176" />
    <linearGradient
       inkscape:collect="always"
       xlink:href="#linearGradient10714"
       id="linearGradient10785"
       gradientUnits="userSpaceOnUse"
       gradientTransform="translate(118,-7)"
       x1="148"
       y1="176"
       x2="145"
       y2="176" />
    <filter
       inkscape:collect="always"
       id="filter10849">
      <feGaussianBlur
         inkscape:collect="always"
         stdDeviation="0.2465625"
         id="feGaussianBlur10851" />
    </filter>
    <filter
       inkscape:collect="always"
       id="filter10865"
       x="-0.5025"
       width="2.005"
       y="-0.025203762"
       height="1.0504075">
      <feGaussianBlur
         inkscape:collect="always"
         stdDeviation="0.209375"
         id="feGaussianBlur10867" />
    </filter>
    <radialGradient
       inkscape:collect="always"
       xlink:href="#linearGradient10881"
       id="radialGradient10887"
       cx="211.82794"
       cy="200.01653"
       fx="211.82794"
       fy="200.01653"
       r="4.0625"
       gradientTransform="matrix(2.286009e-6,-2.9538491,1.404472,7.5828413e-7,-76.918089,826.70765)"
       gradientUnits="userSpaceOnUse" />
    <filter
       inkscape:collect="always"
       id="filter10916">
      <feGaussianBlur
         inkscape:collect="always"
         stdDeviation="0.285"
         id="feGaussianBlur10918" />
    </filter>
    <filter
       inkscape:collect="always"
       id="filter10932">
      <feGaussianBlur
         inkscape:collect="always"
         stdDeviation="0.31"
         id="feGaussianBlur10934" />
    </filter>
    <filter
       inkscape:collect="always"
       id="filter10972"
       x="-0.12"
       width="1.24"
       y="-0.03"
       height="1.06">
      <feGaussianBlur
         inkscape:collect="always"
         stdDeviation="0.3"
         id="feGaussianBlur10974" />
    </filter>
    <filter
       inkscape:collect="always"
       id="filter10988">
      <feGaussianBlur
         inkscape:collect="always"
         stdDeviation="0.31"
         id="feGaussianBlur10990" />
    </filter>
    <linearGradient
       inkscape:collect="always"
       xlink:href="#linearGradient10693"
       id="linearGradient11008"
       gradientUnits="userSpaceOnUse"
       gradientTransform="translate(80,0)"
       x1="136"
       y1="224"
       x2="112"
       y2="192" />
    <linearGradient
       inkscape:collect="always"
       xlink:href="#linearGradient10693"
       id="linearGradient11024"
       gradientUnits="userSpaceOnUse"
       gradientTransform="translate(80,0)"
       x1="136"
       y1="224"
       x2="112"
       y2="192" />
    <linearGradient
       inkscape:collect="always"
       xlink:href="#linearGradient10759"
       id="linearGradient11026"
       gradientUnits="userSpaceOnUse"
       x1="216"
       y1="184"
       x2="196"
       y2="182" />
    <radialGradient
       inkscape:collect="always"
       xlink:href="#linearGradient10881"
       id="radialGradient11028"
       gradientUnits="userSpaceOnUse"
       gradientTransform="matrix(2.286009e-6,-2.9538491,1.404472,7.5828413e-7,-76.918089,826.70765)"
       cx="211.82794"
       cy="200.01653"
       fx="211.82794"
       fy="200.01653"
       r="4.0625" />
    <radialGradient
       inkscape:collect="always"
       xlink:href="#linearGradient10881"
       id="radialGradient11036"
       gradientUnits="userSpaceOnUse"
       gradientTransform="matrix(1.497488e-6,-1.9349677,0.9200226,4.9672655e-7,13.081293,616.05414)"
       cx="211.82794"
       cy="200.01653"
       fx="211.82794"
       fy="200.01653"
       r="4.0625" />
    <linearGradient
       inkscape:collect="always"
       xlink:href="#linearGradient11084"
       id="linearGradient11039"
       gradientUnits="userSpaceOnUse"
       x1="216"
       y1="184"
       x2="196"
       y2="182"
       gradientTransform="matrix(0.65000003,0,0,0.74999715,64.399994,57.200523)" />
    <linearGradient
       inkscape:collect="always"
       xlink:href="#linearGradient11078"
       id="linearGradient11042"
       gradientUnits="userSpaceOnUse"
       gradientTransform="matrix(0.65000003,0,0,0.65000003,116.4,75.599993)"
       x1="136"
       y1="224"
       x2="112"
       y2="192" />
    <radialGradient
       inkscape:collect="always"
       xlink:href="#linearGradient10881"
       id="radialGradient11072"
       gradientUnits="userSpaceOnUse"
       gradientTransform="matrix(1.497488e-6,-1.9349677,0.9200226,4.9672655e-7,23.081293,616.05414)"
       cx="211.82794"
       cy="200.01653"
       fx="211.82794"
       fy="200.01653"
       r="4.0625" />
    <linearGradient
       inkscape:collect="always"
       xlink:href="#linearGradient10759"
       id="linearGradient11074"
       gradientUnits="userSpaceOnUse"
       gradientTransform="matrix(0.65000003,0,0,0.74999715,74.399994,57.200523)"
       x1="216"
       y1="184"
       x2="196"
       y2="182" />
    <linearGradient
       inkscape:collect="always"
       xlink:href="#linearGradient10693"
       id="linearGradient11076"
       gradientUnits="userSpaceOnUse"
       gradientTransform="matrix(0.65000003,0,0,0.65000003,126.4,75.599993)"
       x1="136"
       y1="224"
       x2="112"
       y2="192" />
    <linearGradient
       inkscape:collect="always"
       xlink:href="#linearGradient11078"
       id="linearGradient11108"
       gradientUnits="userSpaceOnUse"
       gradientTransform="matrix(0.65000003,0,0,0.65000003,146.4,75.599993)"
       x1="136"
       y1="224"
       x2="112"
       y2="192" />
    <linearGradient
       inkscape:collect="always"
       xlink:href="#linearGradient11084"
       id="linearGradient11110"
       gradientUnits="userSpaceOnUse"
       gradientTransform="matrix(0.65000003,0,0,0.74999715,94.399994,57.200523)"
       x1="216"
       y1="184"
       x2="196"
       y2="182" />
    <radialGradient
       inkscape:collect="always"
       xlink:href="#linearGradient10881"
       id="radialGradient11112"
       gradientUnits="userSpaceOnUse"
       gradientTransform="matrix(1.497488e-6,-1.9349677,0.9200226,4.9672655e-7,43.081293,616.05414)"
       cx="211.82794"
       cy="200.01653"
       fx="211.82794"
       fy="200.01653"
       r="4.0625" />
  </defs>
  <sodipodi:namedview
     id="base"
     pagecolor="#ffffff"
     bordercolor="#666666"
     borderopacity="1.0"
     inkscape:pageopacity="0.0"
     inkscape:pageshadow="2"
     inkscape:zoom="2.8284271"
     inkscape:cx="170.34308"
     inkscape:cy="1050.4426"
     inkscape:current-layer="layer1"
     inkscape:document-units="px"
     showgrid="false"
     inkscape:window-width="1329"
     inkscape:window-height="748"
     inkscape:window-x="37"
     inkscape:window-y="-3"
     inkscape:window-maximized="1">
    <inkscape:grid
       type="xygrid"
       id="grid6980"
       empspacing="8"
       visible="true"
       enabled="true"
       snapvisiblegridlinesonly="true"
       color="#489cb8"
       opacity="0.31764706"
       empcolor="#000000"
       empopacity="0.25098039" />
  </sodipodi:namedview>
  <metadata
     id="metadata6977">
    <rdf:RDF>
      <cc:Work
         rdf:about="">
        <dc:format>image/svg+xml</dc:format>
        <dc:type
           rdf:resource="http://purl.org/dc/dcmitype/StillImage" />
        <dc:title></dc:title>
      </cc:Work>
    </rdf:RDF>
  </metadata>
  <g
     id="layer1"
     inkscape:label="Layer 1"
     inkscape:groupmode="layer">
    <path
       style="fill:#280b0b;fill-opacity:1;stroke:#501616;stroke-opacity:1;stroke-width:4;stroke-miterlimit:4;stroke-dasharray:none"
       d="M 197.15625,176 C 192.07555,176 188,180.0429 188,185.0625 l 0,7.125 -0.0937,0 -3.90625,3 0,20.8125 26,0 0,-20.8125 -3.65625,-2.8125 0,-7.3125 c 0,-5.0196 -4.1068,-9.0625 -9.1875,-9.0625 z m 0,3.875 c 3.00456,0 5.25,2.25033 5.25,5.21875 l 0,7.09375 -10.46875,0 0,-7.09375 c 0.0664,-2.9677 2.21419,-5.21875 5.21875,-5.21875 z"
       id="path11090"
       inkscape:connector-curvature="0"
       inkscape:export-filename="lock.png"
       inkscape:export-xdpi="90"
       inkscape:export-ydpi="90" />
    <path
       inkscape:export-ydpi="90"
       inkscape:export-xdpi="90"
       inkscape:export-filename="star-off.png"
       inkscape:transform-center-y="-1.0416853"
       inkscape:transform-center-x="-0.18412701"
       transform="matrix(0.31407675,0,0,0.32794301,-306.08262,-42.90618)"
       d="m 1175.8486,315.23037 -37.0169,-22.96647 -37.7587,24.57828 10.4035,-42.30223 -35.0434,-28.31556 43.4467,-3.17774 16.1007,-42.07826 16.448,40.33828 44.9941,2.30976 -33.2812,28.10817 z"
       inkscape:randomized="0"
       inkscape:rounded="3.469447e-18"
       inkscape:flatsided="false"
       sodipodi:arg2="1.5173892"
       sodipodi:arg1="0.92092588"
       sodipodi:r2="27.727077"
       sodipodi:r1="63.622738"
       sodipodi:cy="264.57635"
       sodipodi:cx="1137.3516"
       sodipodi:sides="5"
       id="path5689"
       style="fill:#333333;fill-opacity:1;stroke:#666666;stroke-width:6.23179149999999993;stroke-linecap:round;stroke-linejoin:round;stroke-miterlimit:4;stroke-opacity:1;stroke-dasharray:none;stroke-dashoffset:0"
       sodipodi:type="star" />
    <g
       transform="matrix(0.86363709,0,0,0.86363709,-160.35168,-658.17041)"
       id="g5730"
       inkscape:export-filename="star-on.png"
       inkscape:export-xdpi="90"
       inkscape:export-ydpi="90">
      <path
         sodipodi:type="star"
         style="fill:url(#linearGradient10667);fill-opacity:1;stroke:#000000;stroke-width:6.23178673;stroke-linecap:round;stroke-linejoin:round;stroke-miterlimit:4;stroke-opacity:1;stroke-dasharray:none;stroke-dashoffset:0"
         id="path4911"
         sodipodi:sides="5"
         sodipodi:cx="1137.3516"
         sodipodi:cy="264.57635"
         sodipodi:r1="63.622738"
         sodipodi:r2="27.727077"
         sodipodi:arg1="0.92092588"
         sodipodi:arg2="1.5173892"
         inkscape:flatsided="false"
         inkscape:rounded="3.469447e-18"
         inkscape:randomized="0"
         d="m 1175.8486,315.23037 -37.0169,-22.96647 -37.7587,24.57828 10.4035,-42.30223 -35.0434,-28.31556 43.4467,-3.17774 16.1007,-42.07826 16.448,40.33828 44.9941,2.30976 -33.2812,28.10817 z"
         transform="matrix(0.36366782,0,0,0.37972349,-76.268693,782.04306)"
         inkscape:transform-center-x="-0.21320543"
         inkscape:transform-center-y="-1.2061612"
         inkscape:export-filename="star.png"
         inkscape:export-xdpi="90"
         inkscape:export-ydpi="90" />
      <path
         inkscape:export-ydpi="90"
         inkscape:export-xdpi="90"
         inkscape:export-filename="star.png"
         inkscape:transform-center-y="-0.93201872"
         inkscape:transform-center-x="-0.16473736"
         transform="matrix(0.28101603,0,0,0.29342269,17.700416,804.90923)"
         d="m 1175.8486,315.23037 -37.0169,-22.96647 -37.7587,24.57828 10.4035,-42.30223 -35.0434,-28.31556 43.4467,-3.17774 16.1007,-42.07826 16.448,40.33828 44.9941,2.30976 -33.2812,28.10817 z"
         inkscape:randomized="0"
         inkscape:rounded="3.469447e-18"
         inkscape:flatsided="false"
         sodipodi:arg2="1.5173892"
         sodipodi:arg1="0.92092588"
         sodipodi:r2="27.727077"
         sodipodi:r1="63.622738"
         sodipodi:cy="264.57635"
         sodipodi:cx="1137.3516"
         sodipodi:sides="5"
         id="path5694"
         style="fill:url(#radialGradient10669);fill-opacity:1;stroke:none"
         sodipodi:type="star" />
    </g>
    <g
       id="g8257">
      <rect
         ry="24"
         y="64"
         x="280"
         height="48"
         width="152"
         id="rect7431"
         style="fill:#0088aa;fill-opacity:1;stroke:none" />
      <rect
         ry="20"
         y="69"
         x="284.17493"
         height="40"
         width="144"
         id="rect7435"
         style="fill:#004455;fill-opacity:1;stroke:#004455;stroke-width:4;stroke-miterlimit:4;stroke-opacity:1;stroke-dasharray:none;filter:url(#filter8253)" />
      <rect
         style="fill:#0085a7;fill-opacity:1;stroke:none"
         id="rect7433"
         width="144"
         height="40"
         x="284"
         y="68"
         ry="20" />
      <path
         style="fill:#ffffff;fill-opacity:1;stroke:none;filter:url(#filter8347)"
         d="m 303,65 c -13,1 -21,9 -22,22 l 0.0312,0 C 282,76 292,66 303,65.03125 z"
         id="path8262"
         inkscape:connector-curvature="0"
         sodipodi:nodetypes="ccccc" />
      <path
         sodipodi:nodetypes="ccccc"
         inkscape:connector-curvature="0"
         id="path8351"
         d="m 431,89 c -13,1 -21,9 -22,22 l 0.0312,0 C 410,100 420,90 431,89.03125 z"
         style="opacity:0.5461847;fill:#ffffff;fill-opacity:1;stroke:none;filter:url(#filter8361)"
         transform="matrix(-1,0,0,-1,840,200)" />
      <path
         style="fill:#ffffff;fill-opacity:0.52586209;stroke:none;filter:url(#filter8382)"
         d="M 304,69 C 294,69 285,78 285.02313,87.025002 286,79 294,70 304,70 l 104,0 c 10,0 18,9 19,17 0,-9 -9,-18 -19,-18 z"
         id="rect8365"
         inkscape:connector-curvature="0"
         sodipodi:nodetypes="ccccccc" />
      <path
         sodipodi:nodetypes="ccccccc"
         inkscape:connector-curvature="0"
         id="path8386"
         d="M 304,69 C 294,69 285,78 285.02313,87.025002 286,79 294,80 304,80 l 104,0 c 10,0 18,-1 19,7 0,-9 -9,-18 -19,-18 z"
         style="opacity:0.502008;fill:url(#linearGradient8394);fill-opacity:1;stroke:none;filter:url(#filter8382)"
         transform="matrix(1,0,0,-1,0,176.025)" />
      <path
         style="fill:url(#linearGradient8398);fill-opacity:1;stroke:none;filter:url(#filter8382)"
         d="m 304,69.999998 c -10,0 -19,9 -18.97687,18.025002 C 286,79.999998 294,80.999998 304,80.999998 l 104,0 c 10,0 18,-1 19,7.000002 0,-9.000002 -9,-18.000002 -19,-18.000002 z"
         id="path8396"
         inkscape:connector-curvature="0"
         sodipodi:nodetypes="ccccccc" />
    </g>
    <g
       id="g8406"
       transform="translate(168,0)"
       inkscape:export-filename="button.9.png"
       inkscape:export-xdpi="90"
       inkscape:export-ydpi="90">
      <rect
         style="fill:#0088aa;fill-opacity:1;stroke:none"
         id="rect8408"
         width="152"
         height="48"
         x="280"
         y="64"
         ry="24" />
      <rect
         style="fill:#004455;fill-opacity:1;stroke:#004455;stroke-width:3;stroke-miterlimit:4;stroke-opacity:1;stroke-dasharray:none;filter:url(#filter8253)"
         id="rect8410"
         width="144"
         height="40"
         x="284.17493"
         y="68"
         ry="20" />
      <rect
         ry="20"
         y="68"
         x="284"
         height="40"
         width="144"
         id="rect8412"
         style="fill:#0085a7;fill-opacity:1;stroke:none" />
      <path
         sodipodi:nodetypes="ccccc"
         inkscape:connector-curvature="0"
         id="path8414"
         d="m 303,65 c -13,1 -21,9 -22,22 l 0.0312,0 C 282,76 292,66 303,65.03125 z"
         style="fill:#ffffff;fill-opacity:1;stroke:none;filter:url(#filter8347)" />
      <path
         transform="matrix(-1,0,0,-1,840,200)"
         style="opacity:0.5461847;fill:#ffffff;fill-opacity:1;stroke:none;filter:url(#filter8361)"
         d="m 431,89 c -13,1 -21,9 -22,22 l 0.0312,0 C 410,100 420,90 431,89.03125 z"
         id="path8416"
         inkscape:connector-curvature="0"
         sodipodi:nodetypes="ccccc" />
      <path
         sodipodi:nodetypes="ccccccc"
         inkscape:connector-curvature="0"
         id="path8422"
         d="m 304,69.999998 c -10,0 -19,9 -18.97687,18.025002 C 286,79.999998 294,79.999998 304,79.999998 l 104,0 c 10,0 18,0 19,8.000002 0,-9.000002 -9,-18.000002 -19,-18.000002 z"
         style="fill:url(#linearGradient8530);fill-opacity:1;stroke:none;filter:url(#filter8496)" />
      <path
         sodipodi:nodetypes="ccccccc"
         inkscape:connector-curvature="0"
         id="path8418"
         d="M 304,69 C 294,69 285,78 285.02313,87.025002 286,79 294,70 304,70 l 104,0 c 10,0 18,9 19,17 0,-9 -9,-18 -19,-18 z"
         style="fill:#ffffff;fill-opacity:1;stroke:none;filter:url(#filter8548)" />
      <path
         transform="matrix(1,0,0,-1,0,176.025)"
         style="opacity:1;fill:url(#linearGradient8522);fill-opacity:1;stroke:none;filter:url(#filter8558)"
         d="M 304,69 C 294,69 285,78 285.02313,87.025002 286,79 294,78 304,78 l 104,0 c 10,0 18,1 19,9 0,-9 -9,-18 -19,-18 z"
         id="path8420"
         inkscape:connector-curvature="0"
         sodipodi:nodetypes="ccccccc" />
      <path
         style="fill:#ffffff;fill-opacity:0.28017241;stroke:none;filter:url(#filter8548)"
         d="M 304,69 C 294,69 285,78 285.02313,87.025002 286,79 294,70 304,70 l 104,0 c 10,0 18,9 19,17 0,-9 -9,-18 -19,-18 z"
         id="path8552"
         inkscape:connector-curvature="0"
         sodipodi:nodetypes="ccccccc"
         transform="matrix(1,0,0,-1,0,176.025)" />
      <rect
         style="fill:#000000;fill-opacity:1;stroke:none"
         id="rect8586"
         width="104"
         height="1"
         x="304"
         y="63"
         ry="0" />
      <rect
         ry="0"
         y="112"
         x="304"
         height="1"
         width="104"
         id="rect8588"
         style="fill:none;fill-opacity:1;stroke:none" />
      <rect
         style="fill:#000000;fill-opacity:1;stroke:none"
         id="rect8590"
         width="1"
         height="2"
         x="447"
         y="87"
         transform="translate(-168,0)" />
      <rect
         y="87"
         x="432"
         height="2"
         width="1"
         id="rect8592"
         style="fill:none;fill-opacity:1;stroke:none" />
    </g>
    <g
       inkscape:export-ydpi="90"
       inkscape:export-xdpi="90"
       inkscape:export-filename="button-down.9.png"
       transform="translate(168,60)"
       id="g8562">
      <rect
         ry="24"
         y="64"
         x="280"
         height="48"
         width="152"
         id="rect8564"
         style="fill:#0088aa;fill-opacity:1;stroke:none" />
      <rect
         ry="20"
         y="68"
         x="284.17493"
         height="40"
         width="144"
         id="rect8566"
         style="fill:#004455;fill-opacity:1;stroke:#004455;stroke-width:3;stroke-miterlimit:4;stroke-opacity:1;stroke-dasharray:none;filter:url(#filter8253)" />
      <rect
         style="fill:#004a5c;fill-opacity:1;stroke:none"
         id="rect8568"
         width="144"
         height="40"
         x="284"
         y="68"
         ry="20" />
      <path
         style="fill:#ffffff;fill-opacity:1;stroke:none;filter:url(#filter8347)"
         d="m 303,65 c -13,1 -21,9 -22,22 l 0.0312,0 C 282,76 292,66 303,65.03125 z"
         id="path8570"
         inkscape:connector-curvature="0"
         sodipodi:nodetypes="ccccc" />
      <path
         sodipodi:nodetypes="ccccc"
         inkscape:connector-curvature="0"
         id="path8572"
         d="m 431,89 c -13,1 -21,9 -22,22 l 0.0312,0 C 410,100 420,90 431,89.03125 z"
         style="opacity:0.5461847;fill:#ffffff;fill-opacity:1;stroke:none;filter:url(#filter8361)"
         transform="matrix(-1,0,0,-1,840,200)" />
      <path
         sodipodi:nodetypes="ccccccc"
         inkscape:connector-curvature="0"
         id="path8578"
         d="M 304,69 C 294,69 285,78 285.02313,87.025002 286,79 294,78 304,78 l 104,0 c 10,0 18,1 19,9 0,-9 -9,-18 -19,-18 z"
         style="fill:url(#linearGradient8584);fill-opacity:1;stroke:none;filter:url(#filter8558)"
         transform="matrix(1,0,0,-1,0,176.025)" />
      <path
         transform="matrix(1,0,0,-1,0,176.025)"
         sodipodi:nodetypes="ccccccc"
         inkscape:connector-curvature="0"
         id="path8580"
         d="M 304,69 C 294,69 285,78 285.02313,87.025002 286,79 294,70 304,70 l 104,0 c 10,0 18,9 19,17 0,-9 -9,-18 -19,-18 z"
         style="fill:#ffffff;fill-opacity:0.88793105;stroke:none;filter:url(#filter8548)" />
      <rect
         style="fill:#000000;fill-opacity:1;stroke:none"
         id="rect8586-6"
         width="104"
         height="1"
         x="304"
         y="63"
         ry="0" />
      <rect
         ry="0"
         y="112"
         x="304"
         height="1"
         width="104"
         id="rect8588-6"
         style="fill:none;fill-opacity:1;stroke:none" />
      <rect
         style="fill:#000000;fill-opacity:1;stroke:none"
         id="rect8590-6"
         width="1"
         height="2"
         x="279"
         y="87" />
      <rect
         y="87"
         x="432"
         height="2"
         width="1"
         id="rect8592-9"
         style="fill:none;fill-opacity:1;stroke:none" />
    </g>
    <path
       sodipodi:nodetypes="ccccc"
       inkscape:connector-curvature="0"
       id="path10750"
       d="m 184,195.2 26,0 0,20.8 -26,0 z"
       style="fill:url(#linearGradient11042);fill-opacity:1;stroke:none"
       inkscape:export-filename="lock.png"
       inkscape:export-xdpi="90"
       inkscape:export-ydpi="90" />
    <path
       style="fill:url(#linearGradient11039);fill-opacity:1;stroke:none"
       d="m 187.9,192.2 18.2,0 3.9,3 -26,0 z"
       id="rect10756"
       inkscape:connector-curvature="0"
       sodipodi:nodetypes="ccccc"
       inkscape:export-filename="lock.png"
       inkscape:export-xdpi="90"
       inkscape:export-ydpi="90" />
    <path
       style="fill:url(#radialGradient11036);fill-opacity:1;stroke:none"
       d="m 197.10133,200.11464 c -1.4301,0 -2.57932,1.14922 -2.57932,2.57932 0,0.77464 0.34115,1.4702 0.88024,1.94473 l -0.96213,6.83726 5.32242,0 -0.96213,-6.83726 c 0.53909,-0.47453 0.88025,-1.17009 0.88025,-1.94473 0,-1.4301 -1.14923,-2.57932 -2.57933,-2.57932 z"
       id="path10869"
       inkscape:connector-curvature="0"
       inkscape:export-filename="lock.png"
       inkscape:export-xdpi="90"
       inkscape:export-ydpi="90" />
    <g
       id="g11045"
       transform="matrix(1,0,0,0.98797768,0.0696,2.1159284)"
       inkscape:export-filename="lock.png"
       inkscape:export-xdpi="90"
       inkscape:export-ydpi="90">
      <path
         sodipodi:nodetypes="sscccscccss"
         inkscape:connector-curvature="0"
         id="rect10889"
         d="m 197.10133,176 c -5.0807,0 -9.17093,4.09024 -9.17093,9.17093 l 0,8.55681 c 1.31013,0.65506 2.62027,0.65506 3.9304,0 l 0,-8.51587 c 0.0664,-3.00381 2.23597,-5.28147 5.24053,-5.28147 3.00456,0 5.24053,2.27693 5.24053,5.28147 l 0,8.51587 c 1.31014,0.65506 2.62027,0.65506 3.9304,0 l 0,-8.55681 c 0,-5.08069 -4.09023,-9.17093 -9.17093,-9.17093 z"
         style="fill:#cccccc;fill-opacity:1;stroke:none" />
      <path
         transform="matrix(0.65506653,0,0,0.65506653,63.467758,74.505629)"
         sodipodi:nodetypes="cccccc"
         inkscape:connector-curvature="0"
         id="path10898"
         d="m 211,158 c 3.07169,1.85781 6.39775,5 6.39775,10.98437 l 0,12.81563 L 216,182 216,169.01562 C 216,163 214,161 211,158 z"
         style="fill:#999999;fill-opacity:1;stroke:none;filter:url(#filter10972)" />
      <path
         transform="matrix(0.65506653,0,0,0.65506653,63.467758,74.505629)"
         style="fill:#ffffff;fill-opacity:1;stroke:none;filter:url(#filter10916)"
         d="m 203,156 c -6,0 -12,6 -12,12.98437 l 0,12.81563 1,0.2 0,-12.98438 C 192,161 198,157 203,156 z"
         id="path10902"
         inkscape:connector-curvature="0"
         sodipodi:nodetypes="cccccc" />
      <path
         transform="matrix(0.65506653,0,0,0.65506653,63.467758,74.505629)"
         sodipodi:nodetypes="cccccc"
         inkscape:connector-curvature="0"
         id="path10904"
         d="m 203,160 c -3,0 -9,3 -9,8.98437 L 194,182 l 1.35355,-0.2 0,-12.78438 C 195.35355,163 200,161 203,160 z"
         style="fill:#999999;fill-opacity:1;stroke:none;filter:url(#filter10932)" />
      <path
         transform="matrix(0.65506653,0,0,0.65506653,63.467758,74.505629)"
         style="fill:#ffffff;fill-opacity:1;stroke:none;filter:url(#filter10988)"
         d="m 205,160 c 3,0 9,3 9,8.98437 L 214,182 l -1,-0.2 0,-12.78438 C 213,163 208,161 205,160 z"
         id="path10906"
         inkscape:connector-curvature="0"
         sodipodi:nodetypes="cccccc" />
    </g>
  </g>
</svg>
