<?xml version="1.0" encoding="UTF-8" standalone="no"?>
<!-- Created with Inkscape (http://www.inkscape.org/) -->

<svg
   xmlns:dc="http://purl.org/dc/elements/1.1/"
   xmlns:cc="http://creativecommons.org/ns#"
   xmlns:rdf="http://www.w3.org/1999/02/22-rdf-syntax-ns#"
   xmlns:svg="http://www.w3.org/2000/svg"
   xmlns="http://www.w3.org/2000/svg"
   xmlns:xlink="http://www.w3.org/1999/xlink"
   xmlns:sodipodi="http://sodipodi.sourceforge.net/DTD/sodipodi-0.dtd"
   xmlns:inkscape="http://www.inkscape.org/namespaces/inkscape"
   width="1600px"
   height="1200px"
   id="svg6972"
   version="1.1"
   inkscape:version="0.48.4 r9939"
   sodipodi:docname="ui.svg">
  <defs
     id="defs6974">
    <linearGradient
       inkscape:collect="always"
       id="linearGradient8524">
      <stop
         style="stop-color:#006a86;stop-opacity:1"
         offset="0"
         id="stop8526" />
      <stop
         style="stop-color:#004b5f;stop-opacity:0;"
         offset="1"
         id="stop8528" />
    </linearGradient>
    <linearGradient
       inkscape:collect="always"
       id="linearGradient8516">
      <stop
         style="stop-color:#62a9ba;stop-opacity:1"
         offset="0"
         id="stop8518" />
      <stop
         style="stop-color:#86bdca;stop-opacity:0;"
         offset="1"
         id="stop8520" />
    </linearGradient>
    <linearGradient
       id="linearGradient8400"
       inkscape:collect="always">
      <stop
         id="stop8402"
         offset="0"
         style="stop-color:#ffffff;stop-opacity:1" />
      <stop
         id="stop8404"
         offset="1"
         style="stop-color:#ffffff;stop-opacity:0" />
    </linearGradient>
    <linearGradient
       inkscape:collect="always"
       id="linearGradient8388">
      <stop
         style="stop-color:#00495c;stop-opacity:1"
         offset="0"
         id="stop8390" />
      <stop
         style="stop-color:#164450;stop-opacity:0;"
         offset="1"
         id="stop8392" />
    </linearGradient>
    <linearGradient
       inkscape:collect="always"
       xlink:href="#linearGradient5684"
       id="linearGradient4913"
       gradientUnits="userSpaceOnUse"
       x1="1128.1801"
       y1="299.10449"
       x2="1128.1801"
       y2="214.16422" />
    <linearGradient
       id="linearGradient5684">
      <stop
         id="stop5686"
         offset="0"
         style="stop-color:#f3a000;stop-opacity:1" />
      <stop
         style="stop-color:#ffd520;stop-opacity:1"
         offset="0.29640684"
         id="stop5688" />
      <stop
         style="stop-color:#ffdf60;stop-opacity:1"
         offset="0.59281367"
         id="stop5690" />
      <stop
         id="stop5692"
         offset="1"
         style="stop-color:#ffdf61;stop-opacity:1" />
    </linearGradient>
    <radialGradient
       inkscape:collect="always"
       xlink:href="#linearGradient5564-9-7-5"
       id="radialGradient5698"
       cx="1115.6848"
       cy="226.61589"
       fx="1115.6848"
       fy="226.61589"
       r="60.494766"
       gradientTransform="matrix(1.4635853,0.00388833,-0.00444936,1.5361217,-516.20665,-124.46658)"
       gradientUnits="userSpaceOnUse" />
    <linearGradient
       id="linearGradient5564-9-7-5">
      <stop
         style="stop-color:#ffffff;stop-opacity:1;"
         offset="0"
         id="stop5566-5-4-3" />
      <stop
         style="stop-color:#ffffff;stop-opacity:0;"
         offset="1"
         id="stop5568-7-0-3" />
    </linearGradient>
    <filter
       color-interpolation-filters="sRGB"
       inkscape:collect="always"
       id="filter5794"
       x="-0.1972919"
       width="1.3945838"
       y="-0.20600218"
       height="1.4120044">
      <feGaussianBlur
         inkscape:collect="always"
         stdDeviation="9.9459391"
         id="feGaussianBlur5796" />
    </filter>
    <linearGradient
       inkscape:collect="always"
       xlink:href="#linearGradient5684"
       id="linearGradient7023"
       gradientUnits="userSpaceOnUse"
       x1="1128.1801"
       y1="299.10449"
       x2="1128.1801"
       y2="214.16422" />
    <linearGradient
       id="linearGradient7025">
      <stop
         id="stop7027"
         offset="0"
         style="stop-color:#f3a000;stop-opacity:1" />
      <stop
         style="stop-color:#ffd520;stop-opacity:1"
         offset="0.29640684"
         id="stop7029" />
      <stop
         style="stop-color:#ffdf60;stop-opacity:1"
         offset="0.59281367"
         id="stop7031" />
      <stop
         id="stop7033"
         offset="1"
         style="stop-color:#ffdf61;stop-opacity:1" />
    </linearGradient>
    <radialGradient
       inkscape:collect="always"
       xlink:href="#linearGradient5564-9-7-5"
       id="radialGradient7035"
       cx="1115.6848"
       cy="226.61589"
       fx="1115.6848"
       fy="226.61589"
       r="60.494766"
       gradientTransform="matrix(1.4635853,0.00388833,-0.00444936,1.5361217,-516.20665,-124.46658)"
       gradientUnits="userSpaceOnUse" />
    <linearGradient
       id="linearGradient7037">
      <stop
         style="stop-color:#ffffff;stop-opacity:1;"
         offset="0"
         id="stop7039" />
      <stop
         style="stop-color:#ffffff;stop-opacity:0;"
         offset="1"
         id="stop7041" />
    </linearGradient>
    <linearGradient
       inkscape:collect="always"
       xlink:href="#linearGradient5684"
       id="linearGradient7427"
       gradientUnits="userSpaceOnUse"
       x1="1128.1801"
       y1="299.10449"
       x2="1128.1801"
       y2="214.16422" />
    <radialGradient
       inkscape:collect="always"
       xlink:href="#linearGradient5564-9-7-5"
       id="radialGradient7429"
       gradientUnits="userSpaceOnUse"
       gradientTransform="matrix(1.4635853,0.00388833,-0.00444936,1.5361217,-516.20665,-124.46658)"
       cx="1115.6848"
       cy="226.61589"
       fx="1115.6848"
       fy="226.61589"
       r="60.494766" />
    <filter
       inkscape:collect="always"
       id="filter8253">
      <feGaussianBlur
         inkscape:collect="always"
         stdDeviation="0.92"
         id="feGaussianBlur8255" />
    </filter>
    <filter
       inkscape:collect="always"
       id="filter8347">
      <feGaussianBlur
         inkscape:collect="always"
         stdDeviation="0.22"
         id="feGaussianBlur8349" />
    </filter>
    <filter
       inkscape:collect="always"
       id="filter8361">
      <feGaussianBlur
         inkscape:collect="always"
         stdDeviation="0.22"
         id="feGaussianBlur8363" />
    </filter>
    <filter
       inkscape:collect="always"
       id="filter8382">
      <feGaussianBlur
         inkscape:collect="always"
         stdDeviation="0.039156729"
         id="feGaussianBlur8384" />
    </filter>
    <linearGradient
       inkscape:collect="always"
       xlink:href="#linearGradient8400"
       id="linearGradient8394"
       x1="360"
       y1="69.025002"
       x2="360"
       y2="80.025002"
       gradientUnits="userSpaceOnUse" />
    <linearGradient
       inkscape:collect="always"
       xlink:href="#linearGradient8388"
       id="linearGradient8398"
       gradientUnits="userSpaceOnUse"
       x1="360"
       y1="69.025002"
       x2="360"
       y2="80.025002"
       gradientTransform="translate(0,0.999998)" />
    <filter
       inkscape:collect="always"
       id="filter8496"
       x="-0.027046975"
       width="1.0540939"
       y="-0.21303998"
       height="1.42608">
      <feGaussianBlur
         inkscape:collect="always"
         stdDeviation="1.6000192"
         id="feGaussianBlur8498" />
    </filter>
    <linearGradient
       inkscape:collect="always"
       xlink:href="#linearGradient8516"
       id="linearGradient8522"
       x1="354.95682"
       y1="66.138969"
       x2="354.95682"
       y2="99.941292"
       gradientUnits="userSpaceOnUse" />
    <linearGradient
       inkscape:collect="always"
       xlink:href="#linearGradient8524"
       id="linearGradient8530"
       x1="353.68304"
       y1="66.512497"
       x2="353.68304"
       y2="100.79952"
       gradientUnits="userSpaceOnUse" />
    <filter
       inkscape:collect="always"
       id="filter8548">
      <feGaussianBlur
         inkscape:collect="always"
         stdDeviation="0.2000024"
         id="feGaussianBlur8550" />
    </filter>
    <filter
       inkscape:collect="always"
       id="filter8558"
       x="-0.033808718"
       width="1.0676174"
       y="-0.26629997"
       height="1.5325999">
      <feGaussianBlur
         inkscape:collect="always"
         stdDeviation="2.000024"
         id="feGaussianBlur8560" />
    </filter>
    <linearGradient
       inkscape:collect="always"
       xlink:href="#linearGradient8524"
       id="linearGradient8582"
       gradientUnits="userSpaceOnUse"
       x1="353.68304"
       y1="66.512497"
       x2="353.68304"
       y2="100.79952" />
    <linearGradient
       inkscape:collect="always"
       xlink:href="#linearGradient8516"
       id="linearGradient8584"
       gradientUnits="userSpaceOnUse"
       x1="354.95682"
       y1="66.138969"
       x2="354.95682"
       y2="99.941292" />
  </defs>
  <sodipodi:namedview
     id="base"
     pagecolor="#ffffff"
     bordercolor="#666666"
     borderopacity="1.0"
     inkscape:pageopacity="0.0"
     inkscape:pageshadow="2"
     inkscape:zoom="5.6568542"
     inkscape:cx="531.56802"
     inkscape:cy="1111.8777"
     inkscape:current-layer="g8406"
     inkscape:document-units="px"
     showgrid="true"
     inkscape:window-width="1329"
     inkscape:window-height="748"
     inkscape:window-x="37"
     inkscape:window-y="-3"
     inkscape:window-maximized="1">
    <inkscape:grid
       type="xygrid"
       id="grid6980"
       empspacing="8"
       visible="true"
       enabled="true"
       snapvisiblegridlinesonly="true"
       color="#489cb8"
       opacity="0.31764706"
       empcolor="#000000"
       empopacity="0.25098039" />
  </sodipodi:namedview>
  <metadata
     id="metadata6977">
    <rdf:RDF>
      <cc:Work
         rdf:about="">
        <dc:format>image/svg+xml</dc:format>
        <dc:type
           rdf:resource="http://purl.org/dc/dcmitype/StillImage" />
        <dc:title></dc:title>
      </cc:Work>
    </rdf:RDF>
  </metadata>
  <g
     id="layer1"
     inkscape:label="Layer 1"
     inkscape:groupmode="layer">
    <path
       inkscape:export-ydpi="90"
       inkscape:export-xdpi="90"
       inkscape:export-filename="star-empty.png"
       inkscape:transform-center-y="-1.2061617"
       inkscape:transform-center-x="-0.21319923"
       transform="matrix(0.36366782,0,0,0.37972349,-359.46409,-59.31242)"
       d="m 1175.8486,315.23037 -37.0169,-22.96647 -37.7587,24.57828 10.4035,-42.30223 -35.0434,-28.31556 43.4467,-3.17774 16.1007,-42.07826 16.448,40.33828 44.9941,2.30976 -33.2812,28.10817 z"
       inkscape:randomized="0"
       inkscape:rounded="3.469447e-18"
       inkscape:flatsided="false"
       sodipodi:arg2="1.5173892"
       sodipodi:arg1="0.92092588"
       sodipodi:r2="27.727077"
       sodipodi:r1="63.622738"
       sodipodi:cy="264.57635"
       sodipodi:cx="1137.3516"
       sodipodi:sides="5"
       id="path5689"
       style="fill:#333333;fill-opacity:1;stroke:#666666;stroke-width:5.38200188;stroke-linecap:round;stroke-linejoin:miter;stroke-miterlimit:4;stroke-opacity:1;stroke-dasharray:none;stroke-dashoffset:0"
       sodipodi:type="star" />
    <g
       transform="translate(-203.19539,-781.35548)"
       id="g5730"
       inkscape:export-filename="star.png"
       inkscape:export-xdpi="90"
       inkscape:export-ydpi="90">
      <path
         sodipodi:type="star"
         style="fill:url(#linearGradient7427);fill-opacity:1;stroke:#000000;stroke-width:5.38200188;stroke-linecap:round;stroke-linejoin:miter;stroke-miterlimit:4;stroke-opacity:1;stroke-dasharray:none;stroke-dashoffset:0"
         id="path4911"
         sodipodi:sides="5"
         sodipodi:cx="1137.3516"
         sodipodi:cy="264.57635"
         sodipodi:r1="63.622738"
         sodipodi:r2="27.727077"
         sodipodi:arg1="0.92092588"
         sodipodi:arg2="1.5173892"
         inkscape:flatsided="false"
         inkscape:rounded="3.469447e-18"
         inkscape:randomized="0"
         d="m 1175.8486,315.23037 -37.0169,-22.96647 -37.7587,24.57828 10.4035,-42.30223 -35.0434,-28.31556 43.4467,-3.17774 16.1007,-42.07826 16.448,40.33828 44.9941,2.30976 -33.2812,28.10817 z"
         transform="matrix(0.36366782,0,0,0.37972349,-76.268693,782.04306)"
         inkscape:transform-center-x="-0.21320543"
         inkscape:transform-center-y="-1.2061612"
         inkscape:export-filename="star.png"
         inkscape:export-xdpi="90"
         inkscape:export-ydpi="90" />
      <path
         inkscape:export-ydpi="90"
         inkscape:export-xdpi="90"
         inkscape:export-filename="star.png"
         inkscape:transform-center-y="-0.93201872"
         inkscape:transform-center-x="-0.16473736"
         transform="matrix(0.28101603,0,0,0.29342269,17.700416,804.90923)"
         d="m 1175.8486,315.23037 -37.0169,-22.96647 -37.7587,24.57828 10.4035,-42.30223 -35.0434,-28.31556 43.4467,-3.17774 16.1007,-42.07826 16.448,40.33828 44.9941,2.30976 -33.2812,28.10817 z"
         inkscape:randomized="0"
         inkscape:rounded="3.469447e-18"
         inkscape:flatsided="false"
         sodipodi:arg2="1.5173892"
         sodipodi:arg1="0.92092588"
         sodipodi:r2="27.727077"
         sodipodi:r1="63.622738"
         sodipodi:cy="264.57635"
         sodipodi:cx="1137.3516"
         sodipodi:sides="5"
         id="path5694"
         style="fill:url(#radialGradient7429);fill-opacity:1;stroke:none"
         sodipodi:type="star" />
    </g>
    <rect
       style="fill:#333333;fill-opacity:1;stroke:none"
       id="rect5736"
       width="94.55899"
       height="104.1104"
       x="103.13171"
       y="132.47815" />
    <path
       sodipodi:type="star"
       style="fill:#ffeeaa;fill-opacity:1;stroke:#ffeeaa;stroke-width:10.22580338;stroke-linecap:square;stroke-linejoin:miter;stroke-miterlimit:4;stroke-opacity:1;stroke-dasharray:none;stroke-dashoffset:0;filter:url(#filter5794)"
       id="path5742"
       sodipodi:sides="5"
       sodipodi:cx="1137.3516"
       sodipodi:cy="264.57635"
       sodipodi:r1="63.622738"
       sodipodi:r2="27.727077"
       sodipodi:arg1="0.92092588"
       sodipodi:arg2="1.5173892"
       inkscape:flatsided="false"
       inkscape:rounded="3.469447e-18"
       inkscape:randomized="0"
       d="m 1175.8486,315.23037 -37.0169,-22.96647 -37.7587,24.57828 10.4035,-42.30223 -35.0434,-28.31556 43.4467,-3.17774 16.1007,-42.07826 16.448,40.33828 44.9941,2.30976 -33.2812,28.10817 z"
       transform="matrix(0.36366782,0,0,0.37972349,-263.05288,86.22093)"
       inkscape:transform-center-x="-0.21320543"
       inkscape:transform-center-y="-1.2061612"
       inkscape:export-filename="star.png"
       inkscape:export-xdpi="90"
       inkscape:export-ydpi="90" />
    <use
       x="0"
       y="0"
       xlink:href="#g5730"
       id="use5734"
       transform="translate(16.411203,85.533348)"
       width="2995.5847"
       height="900.11548" />
    <g
       id="g8257">
      <rect
         ry="24"
         y="64"
         x="280"
         height="48"
         width="152"
         id="rect7431"
         style="fill:#0088aa;fill-opacity:1;stroke:none" />
      <rect
         ry="20"
         y="69"
         x="284.17493"
         height="40"
         width="144"
         id="rect7435"
         style="fill:#004455;fill-opacity:1;stroke:#004455;stroke-width:4;stroke-miterlimit:4;stroke-opacity:1;stroke-dasharray:none;filter:url(#filter8253)" />
      <rect
         style="fill:#0085a7;fill-opacity:1;stroke:none"
         id="rect7433"
         width="144"
         height="40"
         x="284"
         y="68"
         ry="20" />
      <path
         style="fill:#ffffff;fill-opacity:1;stroke:none;filter:url(#filter8347)"
         d="m 303,65 c -13,1 -21,9 -22,22 l 0.0312,0 C 282,76 292,66 303,65.03125 z"
         id="path8262"
         inkscape:connector-curvature="0"
         sodipodi:nodetypes="ccccc" />
      <path
         sodipodi:nodetypes="ccccc"
         inkscape:connector-curvature="0"
         id="path8351"
         d="m 431,89 c -13,1 -21,9 -22,22 l 0.0312,0 C 410,100 420,90 431,89.03125 z"
         style="opacity:0.5461847;fill:#ffffff;fill-opacity:1;stroke:none;filter:url(#filter8361)"
         transform="matrix(-1,0,0,-1,840,200)" />
      <path
         style="fill:#ffffff;fill-opacity:0.52586209;stroke:none;filter:url(#filter8382)"
         d="M 304,69 C 294,69 285,78 285.02313,87.025002 286,79 294,70 304,70 l 104,0 c 10,0 18,9 19,17 0,-9 -9,-18 -19,-18 z"
         id="rect8365"
         inkscape:connector-curvature="0"
         sodipodi:nodetypes="ccccccc" />
      <path
         sodipodi:nodetypes="ccccccc"
         inkscape:connector-curvature="0"
         id="path8386"
         d="M 304,69 C 294,69 285,78 285.02313,87.025002 286,79 294,80 304,80 l 104,0 c 10,0 18,-1 19,7 0,-9 -9,-18 -19,-18 z"
         style="opacity:0.502008;fill:url(#linearGradient8394);fill-opacity:1;stroke:none;filter:url(#filter8382)"
         transform="matrix(1,0,0,-1,0,176.025)" />
      <path
         style="fill:url(#linearGradient8398);fill-opacity:1;stroke:none;filter:url(#filter8382)"
         d="m 304,69.999998 c -10,0 -19,9 -18.97687,18.025002 C 286,79.999998 294,80.999998 304,80.999998 l 104,0 c 10,0 18,-1 19,7.000002 0,-9.000002 -9,-18.000002 -19,-18.000002 z"
         id="path8396"
         inkscape:connector-curvature="0"
         sodipodi:nodetypes="ccccccc" />
    </g>
    <g
       id="g8406"
       transform="translate(168,0)"
       inkscape:export-filename="button.9.png"
       inkscape:export-xdpi="90"
       inkscape:export-ydpi="90">
      <rect
         style="fill:#0088aa;fill-opacity:1;stroke:none"
         id="rect8408"
         width="152"
         height="48"
         x="280"
         y="64"
         ry="24" />
      <rect
         style="fill:#004455;fill-opacity:1;stroke:#004455;stroke-width:3;stroke-miterlimit:4;stroke-opacity:1;stroke-dasharray:none;filter:url(#filter8253)"
         id="rect8410"
         width="144"
         height="40"
         x="284.17493"
         y="68"
         ry="20" />
      <rect
         ry="20"
         y="68"
         x="284"
         height="40"
         width="144"
         id="rect8412"
         style="fill:#0085a7;fill-opacity:1;stroke:none" />
      <path
         sodipodi:nodetypes="ccccc"
         inkscape:connector-curvature="0"
         id="path8414"
         d="m 303,65 c -13,1 -21,9 -22,22 l 0.0312,0 C 282,76 292,66 303,65.03125 z"
         style="fill:#ffffff;fill-opacity:1;stroke:none;filter:url(#filter8347)" />
      <path
         transform="matrix(-1,0,0,-1,840,200)"
         style="opacity:0.5461847;fill:#ffffff;fill-opacity:1;stroke:none;filter:url(#filter8361)"
         d="m 431,89 c -13,1 -21,9 -22,22 l 0.0312,0 C 410,100 420,90 431,89.03125 z"
         id="path8416"
         inkscape:connector-curvature="0"
         sodipodi:nodetypes="ccccc" />
      <path
         sodipodi:nodetypes="ccccccc"
         inkscape:connector-curvature="0"
         id="path8422"
         d="m 304,69.999998 c -10,0 -19,9 -18.97687,18.025002 C 286,79.999998 294,79.999998 304,79.999998 l 104,0 c 10,0 18,0 19,8.000002 0,-9.000002 -9,-18.000002 -19,-18.000002 z"
         style="fill:url(#linearGradient8530);fill-opacity:1;stroke:none;filter:url(#filter8496)" />
      <path
         sodipodi:nodetypes="ccccccc"
         inkscape:connector-curvature="0"
         id="path8418"
         d="M 304,69 C 294,69 285,78 285.02313,87.025002 286,79 294,70 304,70 l 104,0 c 10,0 18,9 19,17 0,-9 -9,-18 -19,-18 z"
         style="fill:#ffffff;fill-opacity:1;stroke:none;filter:url(#filter8548)" />
      <path
         transform="matrix(1,0,0,-1,0,176.025)"
         style="opacity:1;fill:url(#linearGradient8522);fill-opacity:1;stroke:none;filter:url(#filter8558)"
         d="M 304,69 C 294,69 285,78 285.02313,87.025002 286,79 294,78 304,78 l 104,0 c 10,0 18,1 19,9 0,-9 -9,-18 -19,-18 z"
         id="path8420"
         inkscape:connector-curvature="0"
         sodipodi:nodetypes="ccccccc" />
      <path
         style="fill:#ffffff;fill-opacity:0.28017241;stroke:none;filter:url(#filter8548)"
         d="M 304,69 C 294,69 285,78 285.02313,87.025002 286,79 294,70 304,70 l 104,0 c 10,0 18,9 19,17 0,-9 -9,-18 -19,-18 z"
         id="path8552"
         inkscape:connector-curvature="0"
         sodipodi:nodetypes="ccccccc"
         transform="matrix(1,0,0,-1,0,176.025)" />
      <rect
         style="fill:#000000;fill-opacity:1;stroke:none"
         id="rect8586"
         width="104"
         height="1"
         x="304"
         y="63"
         ry="0" />
      <rect
         ry="0"
         y="112"
         x="304"
         height="1"
         width="104"
         id="rect8588"
         style="fill:#000000;fill-opacity:1;stroke:none" />
    </g>
    <g
       inkscape:export-ydpi="90"
       inkscape:export-xdpi="90"
       inkscape:export-filename="button-down.9.png"
       transform="translate(168,60)"
       id="g8562">
      <rect
         ry="24"
         y="64"
         x="280"
         height="48"
         width="152"
         id="rect8564"
         style="fill:#0088aa;fill-opacity:1;stroke:none" />
      <rect
         ry="20"
         y="68"
         x="284.17493"
         height="40"
         width="144"
         id="rect8566"
         style="fill:#004455;fill-opacity:1;stroke:#004455;stroke-width:3;stroke-miterlimit:4;stroke-opacity:1;stroke-dasharray:none;filter:url(#filter8253)" />
      <rect
         style="fill:#004a5c;fill-opacity:1;stroke:none"
         id="rect8568"
         width="144"
         height="40"
         x="284"
         y="68"
         ry="20" />
      <path
         style="fill:#ffffff;fill-opacity:1;stroke:none;filter:url(#filter8347)"
         d="m 303,65 c -13,1 -21,9 -22,22 l 0.0312,0 C 282,76 292,66 303,65.03125 z"
         id="path8570"
         inkscape:connector-curvature="0"
         sodipodi:nodetypes="ccccc" />
      <path
         sodipodi:nodetypes="ccccc"
         inkscape:connector-curvature="0"
         id="path8572"
         d="m 431,89 c -13,1 -21,9 -22,22 l 0.0312,0 C 410,100 420,90 431,89.03125 z"
         style="opacity:0.5461847;fill:#ffffff;fill-opacity:1;stroke:none;filter:url(#filter8361)"
         transform="matrix(-1,0,0,-1,840,200)" />
      <path
         sodipodi:nodetypes="ccccccc"
         inkscape:connector-curvature="0"
         id="path8578"
         d="M 304,69 C 294,69 285,78 285.02313,87.025002 286,79 294,78 304,78 l 104,0 c 10,0 18,1 19,9 0,-9 -9,-18 -19,-18 z"
         style="fill:url(#linearGradient8584);fill-opacity:1;stroke:none;filter:url(#filter8558)"
         transform="matrix(1,0,0,-1,0,176.025)" />
      <path
         transform="matrix(1,0,0,-1,0,176.025)"
         sodipodi:nodetypes="ccccccc"
         inkscape:connector-curvature="0"
         id="path8580"
         d="M 304,69 C 294,69 285,78 285.02313,87.025002 286,79 294,70 304,70 l 104,0 c 10,0 18,9 19,17 0,-9 -9,-18 -19,-18 z"
         style="fill:#ffffff;fill-opacity:0.88793105;stroke:none;filter:url(#filter8548)" />
    </g>
  </g>
</svg>
